<svg xmlns="http://www.w3.org/2000/svg" width="100" height="100" fill="none"><path fill="#142C17" d="M16.458 28c8.77 0 15.242 7.545 15.242 21.577C31.7 63.468 25.227 72 16.458 72 7.619 72 1.286 63.468 1.286 49.577S7.619 28 16.458 28m33.507 0c8.77 0 15.242 7.545 15.242 21.577C65.207 63.468 58.734 72 49.965 72c-8.839 0-15.172-8.532-15.172-22.423S41.126 28 49.965 28m33.507 0c8.77 0 15.242 7.545 15.242 21.577C98.714 63.468 92.242 72 83.472 72 74.634 72 68.3 63.468 68.3 49.577S74.634 28 83.472 28"/></svg>