<svg xmlns="http://www.w3.org/2000/svg" width="79" height="15" fill="none"><path fill="#B5966D" d="M28.085 12.382c-.45.22-1.36.493-2.709.493-3.735 0-5.878-2.584-5.878-5.882 0-3.925 2.73-6.003 6.126-6.003 1.317 0 2.012.254 2.46.493l-.415 2.348c-.498-.222-1.028-.425-1.942-.425-1.617 0-3.332.968-3.332 3.544 0 2.304 1.367 3.523 3.345 3.523.784 0 1.316-.154 1.93-.438zm6.202-8.481c-1.006 0-1.98.46-2.476 1.196h-.03V1.031l-2.531.882V12.52h2.53V7.566c0-.716.463-1.485 1.35-1.485.949 0 1.314.751 1.314 1.844v4.597h2.534V7.573c0-2.525-1.077-3.672-2.69-3.672m6.508 5.274c.093 1.075.979 1.646 2.348 1.658.825.006 1.784-.235 2.423-.614l.382 1.982c-.962.486-2.06.674-3.179.674-3.013 0-4.628-1.823-4.628-4.615 0-2.702 1.737-4.445 4.339-4.445 2.682 0 3.884 1.986 3.884 4.475 0 .262-.032.69-.061.885zm3.04-1.812c0-.624-.302-1.715-1.474-1.715-1.027 0-1.512.89-1.584 1.715zm5.504 5.158L46.543 4.17h2.793l1.52 5.908h.05l1.52-5.908h2.793l-2.796 8.352zm6.597-5.605c0-1.23-.039-2.03-.09-2.747h2.384l.072 1.552h.064c.418-1.229 1.218-1.695 2.042-1.742.392-.023.604.005.846.052v2.442c-.232-.046-.692-.1-1.016-.07-.974.09-1.563.803-1.729 1.624-.033.17-.05.359-.05.58v3.914h-2.522zM70.15 8.345c0 2.738-1.64 4.53-4.296 4.53s-4.298-1.792-4.298-4.53 1.64-4.53 4.298-4.53c2.657 0 4.296 1.792 4.296 4.53m-2.624 0c0-1.36-.464-2.542-1.672-2.542-1.21 0-1.671 1.183-1.671 2.542 0 1.36.462 2.542 1.671 2.542 1.208 0 1.672-1.181 1.672-2.542m3.75-1.513c0-1.042-.038-1.932-.092-2.663h2.385l.055 1.169h.05c.331-.544 1.204-1.436 2.568-1.436C77.911 3.902 79 5.048 79 7.507v5.015h-2.529V7.89c0-1.074-.366-1.81-1.281-1.81-.702 0-1.138.497-1.3.973-.06.174-.084.411-.084.65v4.819h-2.53zM0 5.431V0l8.076 2.716zm.003.001 8.073 2.715 8.074-2.715V0L8.076 2.716zM0 11.745V6.312l8.075 2.715z"/><path fill="#B5966D" d="M16.15 6.312.002 11.744l8.073 2.716 8.075-2.717z"/></svg>