<svg xmlns="http://www.w3.org/2000/svg" width="80" height="9" fill="none"><path fill="#B5966D" d="M26.16 8.018a19.4 19.4 0 0 0 2.805-.313l.895-2.325c-1.185.187-2.322.47-3.215.114-1.61-.643-.618-2.317.52-2.836a4.55 4.55 0 0 1 2.002-.43c.34 0 1.171.02 1.493.755L31.787.286c-1.937-.482-3.88-.255-4.888-.044-2.253.462-5.303 2.116-5.272 5.135.02 1.742 2.122 2.708 4.534 2.64M5.417 2.295l-.432 5.552h2.992l3.672-5.455-2.004 5.455h3.393L15.863.172h-5.252L7.894 4.295s.173-2.157.216-2.677c.032-.395-.016-1.446-.979-1.446H2.825L0 7.847h3.37zM58.98 7.836l.94-2.551h-3.648L58.164.159h-3.618l-2.83 7.677zm-9.23 0 .761-2.066h-4.328l.318-.855h4.038l.688-1.89h-4.034l.308-.854h4.242L52.49.159h-7.754L41.91 7.836zm-15.352.013.964-2.6h1.874l-.964 2.6h3.54L42.634.167l-3.533.005-1.025 2.764h-1.87L37.225.172h-3.543L30.863 7.85zM76.21.172l-1.937 5.263c.026-.53.138-2.626.197-3.833.026-.497-.081-.876-.319-1.128a1.03 1.03 0 0 0-.676-.307h-4.32l-2.827 7.677h3.14l2.003-5.437-.237 5.437h5.26L79.32.167l-3.109.006zM18.897 7.847 21.721.172h-3.715l-2.828 7.675zM63.223.172l-2.819 7.67h3.72L66.946.167z"/></svg>