<svg xmlns="http://www.w3.org/2000/svg" width="61" height="18" fill="none"><path fill="#B5966D" d="M4.902 3.834h3.682c1.083 0 1.928.217 2.516.652q.893.65.893 1.873 0 .7-.32 1.21-.32.513-.947.815.866.288 1.33.912.459.624.459 1.514 0 .879-.447 1.503-.446.63-1.274.974c-.552.229-1.21.343-1.983.343h-3.91zM0 17.45h17.429V.022H0zM8.398 5.468q1.588 0 1.59 1.166.001.603-.406.939-.406.336-1.176.335H6.903v-2.44zm.253 3.976H6.886v2.647h1.732q.893 0 1.373-.335.48-.336.48-.967 0-1.341-1.83-1.34zm18.037-5.61h3.681c1.084 0 1.928.217 2.517.652q.892.65.893 1.873 0 .7-.32 1.21-.321.513-.947.815.865.288 1.329.912.46.624.46 1.514 0 .879-.447 1.503-.446.63-1.274.974c-.552.229-1.21.343-1.983.343h-3.91zM21.786 17.45h17.428V.022H21.786zm8.398-11.982q1.588 0 1.59 1.166.001.603-.406.939t-1.176.335h-1.503v-2.44zm.253 3.976h-1.765v2.647h1.732q.893 0 1.373-.335.48-.336.48-.967 0-1.341-1.83-1.34zm24.245 4.085a5.8 5.8 0 0 0 1.416-.53v-1.863a5.26 5.26 0 0 1-2.81.793q-.995 0-1.7-.376a2.5 2.5 0 0 1-1.065-1.1q-.367-.72-.367-1.743c0-.68.127-1.264.38-1.732a2.6 2.6 0 0 1 1.09-1.088q.713-.376 1.72-.376.736 0 1.395.195.664.195 1.23.57V4.374a5.7 5.7 0 0 0-1.35-.49 6.8 6.8 0 0 0-1.547-.167q-1.176 0-2.124.35a4.5 4.5 0 0 0-1.623 1.007 4.4 4.4 0 0 0-1.038 1.58c-.24.613-.36 1.296-.36 2.058q0 1.171.347 2.102c.231.623.562 1.144.997 1.58q.65.645 1.59.988t2.113.343q.887 0 1.689-.195zm6.318 3.9H43.572V0H61z"/></svg>