<svg xmlns="http://www.w3.org/2000/svg" width="76" height="14" fill="none"><path fill="#B5966D" d="M25.563.276h-4.049v5.229H17.3V.276h-4.048v13.152H17.3V8.256h4.214v5.172h4.049zm14.084 10.51V.277h-4.048v13.152h7.319l.61-2.641zM32.605.277h-4.048v13.152h4.048zm16.414 0H44.97v13.152h4.049zM68.98 3.633c0-.715.721-1.046 1.886-1.046 1.275 0 2.661.275 3.603.66L74.137.385C73.083.165 72.14 0 70.42 0c-3.272 0-5.489 1.28-5.489 3.962 0 4.623 6.322 3.687 6.322 5.833 0 .826-.61 1.266-2.107 1.266-1.331 0-3.382-.44-4.602-1.046l.443 3.026c1.22.441 2.884.66 4.215.66 3.382 0 6.154-1.1 6.154-4.402 0-4.403-6.377-3.577-6.377-5.668zm-11.423 6.66c3.771 0 6.155-1.926 6.155-5.284 0-3.687-2.55-5.008-6.71-5.008-1.608 0-3.548.11-4.935.275v13.152h4.048v-3.137h1.442zm2.163-5.23c0 1.707-.831 2.863-2.939 2.863h-.666V2.49c.235-.014.458-.014.666-.014 1.996 0 2.94.935 2.94 2.587m-54.23 5.23c3.77 0 6.154-1.926 6.154-5.284C11.645 1.32 9.094 0 4.935 0 3.327.001 1.387.111 0 .276v13.152h4.048v-3.137H5.49zm2.162-5.23c0 1.707-.832 2.863-2.94 2.863h-.665V2.49c.236-.014.457-.014.666-.014 1.996 0 2.94.935 2.94 2.587"/></svg>