<svg xmlns="http://www.w3.org/2000/svg" width="63" height="33" fill="none"><path fill="#B5966D" d="M48.106 30.855h-33.19L2.179 16.295 14.917 1.634h33.186l12.689 14.71zM48.906 0h-34.79L0 16.243l14.116 16.141h34.787l14.066-16.086zm-6.308 12.43c.924.68 1.164 1.33 1.164 3.154v6.195H41.72l.002-6.116c0-.545.016-1.04-.237-1.415-.239-.352-.708-.498-1.046-.482-.761.031-1.173.566-1.173 1.05v6.963h-2.043V8.44h2.043v4.09c.434-.344 1.06-.553 1.714-.562.602-.008 1.222.169 1.619.46m-16.664 6.366c.01-.113.052-.481.052-1.786 0-1.304-.052-1.852-.052-1.863-.01-.73-.396-1.465-1.233-1.465s-1.222.735-1.233 1.47c0 .006-.052.55-.052 1.858s.051 1.747.052 1.752c.037.707.381 1.526 1.233 1.526s1.163-.768 1.233-1.492m-1.237-6.824c1.342 0 2.974.614 3.264 3.464.027.269.058 1.223.058 1.574 0 .775-.043 1.424-.053 1.574-.133 2.088-1.353 3.413-3.269 3.413-1.915 0-3.138-1.303-3.27-3.411-.009-.163-.06-.8-.051-1.575.009-1.064.04-1.397.055-1.579.208-2.262 1.366-3.459 3.266-3.459m25.02 3.837c.005-.197-.015-.382-.034-.657-.035-.528-.265-1.479-1.244-1.472-.828.005-1.187.667-1.245 1.467-.009.128-.009.22-.024.662zm1.988.604c.013.405.004 1.076.004 1.076h-4.554c-.002.818.038 1.059.05 1.277.056.758.38 1.522 1.227 1.522.994 0 1.182-1.006 1.239-1.476.024-.183.02-.33.02-.33h1.96c-.129 2.211-1.369 3.513-3.22 3.513-1.85 0-3.092-1.336-3.215-3.413-.01-.148-.053-.798-.053-1.574 0-1.09.034-1.375.055-1.575.226-2.277 1.375-3.462 3.214-3.462.958 0 1.767.369 2.338 1.068.494.602.818 1.54.88 2.394.038.556.046.82.053.98M17.941 12.41c.006-.07.01-.133.01-.312 0-.154-.009-.236-.011-.309-.026-.986-.596-1.537-1.647-1.537h-.966v3.765h1.065c1.23 0 1.49-1.023 1.549-1.608m2.014 5.27.21 3.274c.015.463.102.826.102.826H18.25s-.086-.375-.101-.814l-.21-3.098c-.111-1.579-.842-2.141-1.49-2.141h-1.123l-.002 6.053H13.31V8.544h3.12c1.91.023 3.534.931 3.543 3.52.007 1.702-.708 2.517-1.26 2.845.765.442 1.15 1.305 1.24 2.771m12.716-4c.86-.006 1.22.736 1.231 1.465 0 .007.02.183.034.57h2.019a9 9 0 0 0-.017-.31c-.23-2.764-1.93-3.435-3.272-3.435-1.898 0-3.056 1.198-3.266 3.46-.017.182-.044.514-.055 1.579-.008.775.042 1.412.052 1.574.132 2.11 1.355 3.406 3.268 3.411 1.987.007 3.08-1.193 3.273-3.412.005-.083.016-.138.01-.193h-2.019c-.008.147-.02.278-.027.37-.057.74-.32 1.527-1.23 1.527-.852 0-1.187-.852-1.25-1.479-.037-.381-.029-.676-.035-1.798-.01-1.306.031-1.643.051-1.856.071-.826.396-1.467 1.233-1.472"/></svg>