<svg xmlns="http://www.w3.org/2000/svg" width="519" height="685" fill="none"><path fill="#B5966D" d="m83.32 520.699.573 1.071q-2.307 1.284-3.913 2.811-1.55 1.543-2.368 3.123-.78 1.56-.814 3.004-.015 1.482.713 2.661.569.884 1.427 1.422a4.8 4.8 0 0 0 1.915.733 6.6 6.6 0 0 0 2.265-.121q1.213-.222 2.428-.969 1.807-1.063 2.665-2.569a12.4 12.4 0 0 0 1.331-3.281q.438-1.756.629-3.618.19-1.861.611-3.56.458-1.72 1.278-3.205.876-1.469 2.63-2.456 1.605-.908 3.121-1.007 1.552-.119 2.917.386a7.6 7.6 0 0 1 2.537 1.54 8.6 8.6 0 0 1 1.906 2.402q.534.997.785 1.909.25.911.349 1.715.097.803.079 1.479.002.712.018 1.274l1.357-.395.455.85q-.017.057-.756.453l-1.809.97q-1.052.61-2.288 1.321-1.198.69-2.287 1.321a62 62 0 0 1-2.529 1.403l-.477-.98q2.06-1.39 3.502-2.781 1.478-1.41 2.284-2.746.843-1.355.976-2.615a4 4 0 0 0-.461-2.368 4.3 4.3 0 0 0-1.164-1.373 4.4 4.4 0 0 0-1.523-.8 4.8 4.8 0 0 0-1.805-.174 4.9 4.9 0 0 0-1.783.576q-1.477.792-2.207 2.181-.691 1.37-1.019 3.066a47 47 0 0 0-.495 3.689 21.3 21.3 0 0 1-.717 3.807 13 13 0 0 1-1.624 3.533q-1.095 1.682-3.199 2.903-1.845 1.084-3.712 1.324a8.1 8.1 0 0 1-3.496-.313q-1.645-.497-3.085-1.674-1.383-1.161-2.35-2.877-.99-1.847-1.284-3.638-.238-1.774-.017-3.225l-1.505.474-.475-.886q.036-.02.793-.473.812-.435 1.937-1.086l2.438-1.306q1.33-.713 2.455-1.364a48 48 0 0 0 1.938-1.086zm25.345 7.33.607-.372 4.485 7.326-.607.372a3.7 3.7 0 0 0-.567-.684q-.37-.364-.765-.367-.661-.038-2.107.651a61 61 0 0 0-3.197 1.76 120 120 0 0 0-3.789 2.319 245 245 0 0 1-3.66 2.29 256 256 0 0 1-3.845 2.305 110 110 0 0 0-3.681 2.253q-1.694 1.086-2.915 1.981-1.2.93-1.467 1.537-.177.353-.021.848.19.473.388.794l-.644.394-4.485-7.327.608-.372q.197.322.567.685t.765.367q.603.024 1.978-.621t3.111-1.659a117 117 0 0 0 3.753-2.297l3.824-2.341 3.646-2.232a115 115 0 0 0 3.753-2.297 45 45 0 0 0 3.071-2.126q1.27-.975 1.525-1.523.175-.354.021-.848a3.7 3.7 0 0 0-.352-.816m5.333 9.418q.086-.377-.148-.83a3.7 3.7 0 0 0-.424-.782l.606-.45 4.149 5.583-14.068 20.482 23.218-8.172 4.299 5.785-.605.45a3.7 3.7 0 0 0-.626-.631q-.368-.354-.761-.322-.605.03-2.049.896a46 46 0 0 0-3.152 2.082l-3.633 2.699q-1.892 1.46-3.506 2.659a251 251 0 0 1-3.59 2.616l-3.363 2.5a36 36 0 0 0-2.6 2.193q-1.043.984-1.28 1.578-.145.369.055.847.232.453.457.756l-.605.45-5.1-6.861.606-.45q.225.303.592.656.4.329.82.331.57-.006 1.822-.78a38 38 0 0 0 2.883-1.882q1.606-1.141 3.397-2.525l3.565-2.649 2.791-2.075a84 84 0 0 0 3.027-2.25 67 67 0 0 0 2.742-2.142q1.287-1.008 2.061-1.793l-26.953 9.538-1.885-.217 16.481-24.05-9.603 7.242a253 253 0 0 1-3.623 2.641q-1.85 1.374-3.473 2.633a57 57 0 0 0-2.725 2.234q-1.078 1.01-1.315 1.604-.144.368.055.847.233.453.458.756l-.606.45-3.65-4.91.606-.45q.225.302.593.656.4.328.82.33.57-.006 1.855-.805a42 42 0 0 0 2.984-1.956 115 115 0 0 0 3.531-2.625l3.599-2.675 3.431-2.55a117 117 0 0 0 3.531-2.624 45 45 0 0 0 2.868-2.393q1.237-1.076 1.441-1.645m22.521 28.267q-.318-.335-.613-.343-.297-.008-.601.28l-12.934 12.121-2.672-3.068q5.997-5.674 9.109-8.848 3.141-3.204 3.402-4.026.13-.412-.094-.892-.165-.479-.771-1.059l.548-.518 4.752 5.022 1.065 1.127q3.425 3.681 3.809 6.953.413 3.301-2.571 6.124-1.461 1.383-3.111 2.078a8.4 8.4 0 0 1-3.308.649q-1.69-.016-3.328-.774-1.639-.757-3.11-2.25l-2.507-2.589.971-.803 1.728 1.826q.98 1.035 2.125 1.393a5.05 5.05 0 0 0 2.426.186q1.28-.231 2.575-.937a11.4 11.4 0 0 0 2.514-1.916q1.37-1.296 2.084-2.492.744-1.164.865-2.317.122-1.153-.381-2.294-.502-1.14-1.656-2.298zm-16.82 8.99 2.672 3.068-5.023 4.751q-2.01 1.901-2.249 3.051-.095.264.07.683.197.391.658.878l-.548.519-6.048-6.393.548-.519q.52.489.928.738.408.248.677.167.537-.104 1.323-.675.816-.54 1.849-1.461 1.064-.948 2.342-2.158zm11.657 26.655q1.011.817 1.896 1.524a39 39 0 0 0 2.921 2.131q.53.346.862.411.3.037 1.101-.378a22 22 0 0 0 1.716-.9 24 24 0 0 0 1.708-1.018q.797-.474 1.052-.642l.384.774q-.47.48-1.163 1.156-.692.675-1.472 1.386a46 46 0 0 0-1.499 1.419q-.72.707-1.213 1.278l-8.415-7.31-4.824-4.159.492-.572q.286.247.721.511.463.234.841.116.555-.13 1.667-1.163 1.14-1.065 2.512-2.593a114 114 0 0 0 2.873-3.332l2.955-3.428 1.122-1.301a76 76 0 0 0 1.756-1.972q.985-1.143 1.993-2.376a53 53 0 0 0 1.934-2.372 26 26 0 0 0 1.424-2.037q.615-.907.672-1.357.032-.359-.294-.751a3.8 3.8 0 0 0-.584-.67l.492-.571 6.57 5.664-.492.571a3.7 3.7 0 0 0-.749-.479q-.435-.265-.813-.148-.382.059-1.22.774a81 81 0 0 0-1.805 1.708 93 93 0 0 0-2.093 2.235q-1.071 1.18-2.088 2.294-.99 1.084-1.756 1.972l-1.067 1.238a214 214 0 0 0-2.732 3.233 156 156 0 0 0-2.449 3.034 85 85 0 0 0-1.976 2.612 44 44 0 0 0-1.314 1.91 1.25 1.25 0 0 0-.148.813q.121.437.502.765m17.276 13.494q1.025.654 2.026 1.342 1.06.678 1.947 1.237.945.548 1.615.907.669.357 1.04.41.302.004 1.088-.473.785-.477 1.631-1.116.881-.615 1.621-1.174.798-.57 1.034-.764l.49.693a68 68 0 0 1-2.342 2.814q-.673.758-1.336 1.574a21 21 0 0 0-1.066 1.402l-9.852-6.824-5.353-3.68.428-.622q.31.214.772.43t.825.058q.561-.224 1.554-1.372a40 40 0 0 0 2.19-2.817 116 116 0 0 0 2.517-3.66l2.564-3.73 2.54-3.694q1.365-1.91 2.493-3.626a40 40 0 0 0 1.845-3.054q.717-1.339.726-1.942.017-.396-.35-.749a5.4 5.4 0 0 0-.678-.568l.428-.622 5.87 4.036 8.806 6.054-.926 1.347-.952 1.533q-.464.748-.963 1.474-.44.714-.762 1.256l-.822-.21q.097-.29.341-1.087.279-.775.512-1.632.29-.867.442-1.679t.039-1.092q-.17-.27-.71-.743a12 12 0 0 0-1.252-1.064q-.736-.557-1.644-1.232a63 63 0 0 0-1.876-1.34q-.425-.344-.844-.326a1.1 1.1 0 0 0-.749.349q-.578.62-1.513 1.757a78 78 0 0 0-2 2.54q-1.09 1.438-2.288 3.106a210 210 0 0 0-4.772 6.941 149 149 0 0 0-2.104 3.282 84 84 0 0 0-1.68 2.813q-.703 1.245-1.074 2.007-.216.462-.083.859.159.362.607.671m5.961-13.701.641-.932q2.234 1.485 3.674 2.424 1.497.929 2.32 1.137.474.124 1.143-.332.704-.432 1.341-1.062.636-.63 1.191-1.215.579-.62.814-.814l.608.521a415 415 0 0 0-1.754 2.404l-1.9 2.762-1.899 2.763q-.891 1.371-1.616 2.499l-.68-.416q.073-.256.421-.982.37-.762.731-1.582a7.4 7.4 0 0 0 .512-1.632q.185-.787-.076-1.222-.513-.657-1.94-1.69a258 258 0 0 0-3.531-2.631m31.901 14.272q1.469-.247 2.475-.915 1.063-.69 1.761-1.488a7.4 7.4 0 0 0 1.155-1.56q.473-.802.667-1.265.386-.702.655-1.452.27-.75.281-1.428.066-.699-.174-1.209-.223-.549-.903-.879-1.198-.503-2.112.159-.859.64-1.517 1.772-1.152 1.879-1.597 4.238-.428 2.319-.348 4.944t.547 5.41q.52 2.764 1.268 5.532a47 47 0 0 0 1.426 4.507q.813 2.069 1.798 3.618 1.003 1.512 2.263 2.404a5.96 5.96 0 0 0 2.776 1.075q.551.095 1.074.041.522-.053.999-.216.494-.202.927-.475.449-.312.946-.739l.476.382a8.7 8.7 0 0 1-1.36 1.292 7.4 7.4 0 0 1-1.54.853 5.4 5.4 0 0 1-1.642.447q-.835.15-1.651.035-2.71-.366-4.591-1.837a13.7 13.7 0 0 1-3.147-3.548 22.7 22.7 0 0 1-2.054-4.634 69 69 0 0 1-1.324-4.965q-1.376-6.576-1.234-11.243.18-4.652 2.024-7.422 1.405-2.046 3.447-2.689 2.058-.681 4.464.193 1.136.431 1.973 1.146a4.55 4.55 0 0 1 1.349 1.657q.459.966.478 2.11.02 1.144-.499 2.38a6.5 6.5 0 0 1-1.437 2.124 8.8 8.8 0 0 1-2.206 1.574q-1.255.609-2.865.979a15 15 0 0 1-3.353.41zm-.96 1.097q-1.832.14-3.264.63-1.416.45-2.533 1.163a8.3 8.3 0 0 0-1.842 1.681q-.747.913-1.295 2.002-.639 1.413-.807 3.115a8.3 8.3 0 0 0 .333 3.321q.501 1.619 1.794 2.98 1.33 1.377 3.636 2.163a12.8 12.8 0 0 0 4.276.749q2.18.006 4.132-.856 1.952-.863 3.562-2.64 1.665-1.801 2.656-4.703.328-.998.475-1.891.148-.892.043-1.618a3.3 3.3 0 0 0-.467-1.378 3 3 0 0 0-.954-1.082q-.654-.501-.562-.827.107-.363 1.457-.115.838.17 1.582.346.76.137 1.318.326.595.204.933.482.338.279.401.669.18.438.262 1.109.12.687.044 1.519a9 9 0 0 1-.333 1.769q-.258.937-.685 1.848-1.077 2.457-3.187 4.343-2.094 1.848-4.843 2.876-2.694 1.005-5.831 1.006-3.081-.021-6.111-1.247-2.898-1.217-4.731-2.804-1.834-1.588-2.722-3.37-.85-1.765-.803-3.609.048-1.844.925-3.611.836-1.558 1.929-2.645 1.13-1.07 2.705-1.682 1.575-.61 3.687-.77 2.111-.159 4.925.068zm4.182 5.846a4.1 4.1 0 0 1-.031-1.877 5.4 5.4 0 0 1 .73-1.738 4.2 4.2 0 0 1 1.328-1.215 3.1 3.1 0 0 1 1.697-.47q1.222.013 2.181.325.976.273 1.81.669.889.374 1.707.807a10 10 0 0 0 1.732.637 7.2 7.2 0 0 0 2.253.263 6.2 6.2 0 0 0 2.328-.567q1.075-.504 1.871-1.533.85-1.052 1.113-2.759.157-1.025-.105-1.59-.225-.549-.727-.759-.447-.234-1.047-.213a7 7 0 0 0-1.116.168q-.577.076-1.147-.299a2.5 2.5 0 0 1-.832-.941 2.8 2.8 0 0 1-.241-1.373q.083-.738.732-1.42.644-.775 1.259-.835.67-.082 1.151.074.519.172.972.499.509.305.881.824.411.537.67 1.327t.421 1.813q.402 1.531.02 3.417a8.8 8.8 0 0 1-1.553 3.483q-1.117 1.577-2.986 2.565-1.869.987-4.363.759-1.266-.123-2.232-.528a21 21 0 0 1-1.713-.901 48 48 0 0 0-1.542-.874 5.1 5.1 0 0 0-1.6-.627q-1.311-.232-2.093.44-.744.687-.699 2.206a.28.28 0 0 1-.136.215.6.6 0 0 1-.313.096l-.264-.02zm33.071 25.467a8.4 8.4 0 0 1-3.856-1.709q-1.659-1.379-2.678-3.661-1.011-2.323-1.218-5.518t.555-7.231 2.097-6.811q1.341-2.817 3.058-4.455 1.765-1.67 3.79-2.226a9.14 9.14 0 0 1 4.255-.178q1.689.32 3.044 1.044 1.397.733 2.422 2.078l1.123-1.878.864.164-1.911 8.765-.988-.187q.129-1.809-.258-3.375-.345-1.557-1.016-2.75-.63-1.185-1.557-1.915-.929-.73-1.925-.875-1.572-.254-2.935.64-1.321.902-2.388 2.705-1.065 1.803-1.892 4.376a54 54 0 0 0-1.369 5.669 50 50 0 0 0-.775 5.91q-.135 2.747.184 4.896.369 2.117 1.262 3.479.894 1.363 2.369 1.684a8.3 8.3 0 0 0 2.582.104q1.23-.193 2.372-1.044 1.142-.852 2.243-2.392t2.159-3.984l1.236.233a24.5 24.5 0 0 1-1.655 3.568q-.96 1.696-2.295 2.893a8.1 8.1 0 0 1-3.022 1.775q-1.686.578-3.877.206m20.432.86q1.298.053 2.43.092a39 39 0 0 0 3.615-.031q.633-.037.938-.184.263-.149.658-.96.438-.808.841-1.746.45-.975.764-1.835.356-.856.461-1.143l.77.392q-.09.666-.244 1.621-.153.956-.355 1.991-.198.994-.358 2.033a22 22 0 0 0-.211 1.749l-11.114-.85-6.353-.462.055-.752q.375.027.883-.02.511-.088.744-.408.368-.435.645-1.928.28-1.535.47-3.579.191-2.044.319-4.389l.328-4.513.125-1.714q.127-1.167.233-2.63.11-1.505.183-3.096a52 52 0 0 0 .139-3.057q.02-1.427-.072-2.484-.046-1.096-.27-1.49-.187-.308-.683-.428a3.7 3.7 0 0 0-.868-.189l.054-.753 8.652.629-.055.753a3.7 3.7 0 0 0-.887.061q-.507.048-.74.367-.273.274-.519 1.348a84 84 0 0 0-.43 2.448 95 95 0 0 0-.347 3.042l-.308 3.087q-.148 1.46-.234 2.63l-.118 1.63a204 204 0 0 0-.265 4.224 156 156 0 0 0-.158 3.896 87 87 0 0 0-.028 3.275q.022 1.43.084 2.317.053.424.366.741.358.278.86.315m21.859.548a70 70 0 0 1 2.427-.126q1.255-.085 2.301-.163a57 57 0 0 0 1.837-.232q.75-.11 1.08-.289.245-.176.593-1.027.348-.85.648-1.867.342-1.019.605-1.908.303-.933.377-1.229l.806.266a76 76 0 0 1-.069 1.637q-.05.966-.14 2.018a45 45 0 0 0-.138 2.059q-.049 1.008-.023 1.762l-11.979.373-6.492.225-.026-.753q.378-.013.877-.115.5-.1.697-.443.318-.514.433-2.028a40 40 0 0 0 .086-3.567q-.03-2.096-.154-4.439l-.157-4.523-.155-4.481a116 116 0 0 0-.152-4.398 41 41 0 0 0-.333-3.552q-.22-1.503-.572-1.993-.222-.328-.727-.394a5.4 5.4 0 0 0-.882-.054l-.026-.753 7.119-.247 10.68-.371.056 1.634.146 1.798a36 36 0 0 1 .103 1.757q.071.836.135 1.463l-.786.321a45 45 0 0 0-.373-1.077 21 21 0 0 0-.559-1.616 12.4 12.4 0 0 0-.643-1.613q-.36-.742-.618-.901-.297-.115-1.012-.175-.675-.102-1.639-.111-.924-.01-2.055-.012a62 62 0 0 0-2.305.038q-.546-.024-.873.24-.325.263-.394.726a39 39 0 0 0-.171 2.312q-.076 1.428-.098 3.232a152 152 0 0 0 .008 3.857q.03 2.054.104 4.19t.188 4.228.261 3.891.322 3.259q.175 1.42.33 2.253.102.5.445.739.342.198.887.179m-3.356-14.559-.039-1.131q2.678-.135 4.394-.236 1.756-.145 2.542-.465.455-.185.722-.948.308-.765.446-1.651.136-.885.235-1.685.096-.842.17-1.138l.798.056q.004 1.3.02 2.976l.116 3.351.116 3.35q.099 1.632.187 2.971l-.794.069q-.093-.248-.246-1.039a44 44 0 0 0-.353-1.707 7.4 7.4 0 0 0-.559-1.616q-.32-.744-.787-.937-.804-.224-2.565-.205a264 264 0 0 0-4.403-.015m23.041-12.899.948-4.437 1.487-.788 8.984 20.974q.264.594.739 1.707a54 54 0 0 0 1.044 2.295q.564 1.14 1.149 2.151t1.078 1.44q.253.257.811.296.55-.003.965-.069l.118.745-9.063 1.443-.118-.745.496-.079q.324-.094.608-.182a5 5 0 0 0 .47-.244q.235-.123.25-.295.086-.523-.25-1.572-.337-1.05-.818-2.204a43 43 0 0 0-.914-2.273l-.745-1.749q-.549-1.313-1.416-3.296a216 216 0 0 0-1.822-4.25 158 158 0 0 0-2.006-4.603 217 217 0 0 0-1.995-4.265m2.27-5.199q-.25 1.1-.476 2.876-.227 1.776-.476 3.938a641 641 0 0 0-.508 4.536q-.223 2.327-.426 4.523-.208 2.156-.38 4.007a103 103 0 0 0-.255 2.926q-.06.689-.207 1.9-.111 1.164-.204 2.451a46 46 0 0 0-.051 2.342q.047 1.096.292 1.566.128.277.728.309.592-.01 1.006-.076l.077.752-6.331 1.008-.119-.745a6.5 6.5 0 0 0 .939-.234q.56-.216.762-.546.293-.555.535-1.697t.424-2.402q.216-1.307.321-2.512t.172-1.852l2.025-22.727zm-2.826 20.097-.197-1.242 9.021-1.437.198 1.242zm26.521 6.874-5.212 1.588-.219-.722a3.8 3.8 0 0 0 .845-.389q.444-.266.519-.596.095-.555-.091-1.593a19 19 0 0 0-.471-2.266 70 70 0 0 0-.656-2.297l-.537-1.764-.159-.521-.195-.642 3.007-.915zm-6.176-9.202q-.387-1.414-.937-3.219a190 190 0 0 0-1.175-3.716 201 201 0 0 0-1.224-3.876 72 72 0 0 0-1.143-3.463 32 32 0 0 0-1.071-2.653q-.474-1.125-.796-1.466-.44-.435-1.025-.344a3.9 3.9 0 0 0-1.107.249l-.22-.722 6.534-1.99 1.764-.537q2.739-.79 4.713-.778 2.003-.04 3.406.539t2.275 1.717a7.2 7.2 0 0 1 1.339 2.527q.663 2.033.381 3.695a7.2 7.2 0 0 1-1.232 3.004q-.921 1.288-2.471 2.242a15.5 15.5 0 0 1-3.381 1.555l-2.393.773 1.624 5.331zm-1.004-20.414q-.401.123-.569.436-.138.261-.029.622l3.598 11.959 1.832-.602q1.844-.562 2.719-1.573.862-1.051 1.078-2.212a6.8 6.8 0 0 0 .05-2.425 17 17 0 0 0-.511-2.253 11 11 0 0 0-.811-1.944 5.3 5.3 0 0 0-1.4-1.72q-.87-.698-2.123-.93-1.213-.244-2.953.374zm4.895 30.312-3.009-10.166 2.967-.904.195.642q.126.268.199.509l.537 1.763q.33 1.083.736 2.273.394 1.15.832 2.156.465.953.852 1.361.246.232.764.206.517-.027.918-.148l.22.721zm-1.903-16.461 5.082-1.723q1.869-.482 3.268.232 1.4.712 2.477 2.092a16.3 16.3 0 0 1 1.896 3.059 707 707 0 0 1 1.534 3.169q.745 1.437 1.411 2.33t1.427.66a.81.81 0 0 0 .624-.54q.212-.459.366-.813l.633.64q-.15.659-.632 1.375a5.8 5.8 0 0 1-1.187 1.282 4.4 4.4 0 0 1-1.546.821q-.882.268-1.842-.008-1-.265-1.7-1.41a32 32 0 0 1-1.44-2.716 90 90 0 0 0-1.507-3.22 12.6 12.6 0 0 0-2.003-2.982 7.4 7.4 0 0 0-2.798-1.996q-1.613-.692-4.063-.252m23.466-23.987q-.411.207-.506.488-.093.28.094.656l7.852 15.892-3.711 1.668q-3.692-7.385-5.828-11.282-2.154-3.936-2.867-4.423-.356-.244-.881-.169-.505.019-1.237.431l-.337-.675 6.185-3.092 1.386-.693q4.517-2.212 7.759-1.63 3.28.562 5.116 4.235.9 1.8 1.087 3.58a8.4 8.4 0 0 1-.337 3.354q-.507 1.612-1.706 2.961-1.2 1.35-3.055 2.324l-3.204 1.649-.488-1.162 2.249-1.124q1.275-.637 1.949-1.631.713-1.011.881-2.267.15-1.293-.15-2.736a11.4 11.4 0 0 0-1.105-2.961q-.843-1.688-1.781-2.718-.899-1.049-1.967-1.499t-2.305-.3-2.68.918zm3.729 18.704 3.711-1.668 3.092 6.184q1.237 2.473 2.268 3.036.224.169.674.132.432-.075 1.031-.375l.337.674-7.871 3.936-.337-.675q.618-.355.974-.675.356-.318.356-.599.056-.544-.262-1.462-.281-.937-.862-2.193-.6-1.293-1.387-2.867zm28.09-1.545-4.559 2.983-.413-.632q.35-.229.703-.609.351-.38.331-.718-.065-.56-.533-1.504a20 20 0 0 0-1.086-2.044q-.654-1.074-1.273-2.021l-1.01-1.543-.298-.456-.367-.561 2.63-1.721zm-8.505-7.105a119 119 0 0 0-1.8-2.828 196 196 0 0 0-2.169-3.239 198 198 0 0 0-2.261-3.378 72 72 0 0 0-2.066-3.005 32 32 0 0 0-1.77-2.247q-.771-.948-1.176-1.184-.543-.296-1.08-.044a4 4 0 0 0-.993.549l-.413-.631 5.716-3.74 1.543-1.009q2.407-1.526 4.306-2.067 1.912-.6 3.421-.435 1.51.163 2.665 1.011a7.2 7.2 0 0 1 1.993 2.051q1.205 1.765 1.4 3.441a7.2 7.2 0 0 1-.342 3.228q-.524 1.494-1.745 2.844a15.5 15.5 0 0 1-2.81 2.44l-2.081 1.412 3.051 4.663zm-6.679-19.317q-.35.23-.424.578-.06.29.146.605l6.802 10.473 1.59-1.09q1.614-1.056 2.17-2.271.534-1.251.416-2.426a6.8 6.8 0 0 0-.63-2.342 17 17 0 0 0-1.122-2.02 11 11 0 0 0-1.322-1.639 5.3 5.3 0 0 0-1.826-1.259q-1.03-.428-2.299-.299-1.233.106-2.73 1.185zm13.185 27.73-5.735-8.918 2.595-1.698.367.561q.196.223.334.433l1.009 1.543q.62.947 1.343 1.976a29 29 0 0 0 1.402 1.837q.714.785 1.2 1.068.3.153.79-.016a4 4 0 0 0 .841-.4l.413.631zm-6.435-15.27 4.397-3.077q1.658-.986 3.202-.693 1.543.292 2.964 1.316a16.3 16.3 0 0 1 2.676 2.405q1.254 1.383 2.36 2.613 1.118 1.171 2.006 1.842.89.67 1.556.234a.81.81 0 0 0 .447-.693q.075-.5.124-.883l.787.437q.04.675-.222 1.498a5.8 5.8 0 0 1-.781 1.562q-.483.717-1.254 1.221-.772.505-1.771.508-1.035.026-2.027-.878a32 32 0 0 1-2.142-2.203 91 91 0 0 0-2.348-2.671 12.6 12.6 0 0 0-2.758-2.301 7.4 7.4 0 0 0-3.245-1.133q-1.742-.212-3.971.896m25.955-19.064q-2.055-2.434-4.1-4.272-2.014-1.865-3.829-2.91-1.782-1.072-3.377-1.206-1.594-.135-2.811.893-1.217 1.026-1.351 2.621-.13 1.536.592 3.559.726 1.965 2.227 4.262a54 54 0 0 0 3.534 4.64 58 58 0 0 0 4.09 4.389q2.068 1.929 3.964 3.07 1.928 1.115 3.544 1.34 1.649.198 2.866-.829 1.216-1.027 1.324-2.654.08-1.658-.759-3.692-.808-2.06-2.363-4.422a45 45 0 0 0-3.551-4.789m-14.82-8.328q1.696-1.433 3.732-1.945 2.069-.54 4.368.041 2.3.58 4.855 2.372 2.587 1.766 5.264 4.935 2.65 3.138 4.01 6.047 1.365 2.851 1.66 5.344.269 2.462-.529 4.506-.792 1.984-2.488 3.418a8.76 8.76 0 0 1-3.787 1.881q-2.117.415-4.53-.234-2.409-.708-4.99-2.532-2.61-1.856-5.259-4.993t-3.961-5.925q-1.338-2.818-1.525-5.184-.214-2.397.632-4.318a9.15 9.15 0 0 1 2.548-3.413m39.916 6.709a8.4 8.4 0 0 1-3.514 2.334q-2.054.657-4.527.289-2.502-.396-5.308-1.938-2.805-1.543-5.798-4.355-2.994-2.811-4.617-5.429-1.655-2.646-2.112-4.973-.46-2.387.159-4.393a9.16 9.16 0 0 1 2.137-3.684q1.177-1.251 2.517-2.005 1.368-.785 3.054-.926l-.98-1.956.602-.641 6.365 6.323-.689.733q-1.457-1.082-2.985-1.596-1.5-.547-2.865-.622-1.338-.106-2.452.284-1.115.39-1.773 1.152-1.059 1.19-1.038 2.82.05 1.6.998 3.467.948 1.868 2.673 3.948a54 54 0 0 0 4.045 4.202 50 50 0 0 0 4.567 3.829q2.244 1.59 4.228 2.477 1.982.827 3.612.806 1.63-.022 2.693-1.093a8.3 8.3 0 0 0 1.476-2.121q.498-1.141.394-2.562t-.811-3.176q-.708-1.756-2.199-3.963l.86-.917a24.6 24.6 0 0 1 2.12 3.314q.913 1.72 1.206 3.49a8.1 8.1 0 0 1-.128 3.502q-.42 1.733-1.91 3.38m11.646-16.374q.709-.988 1.451-1.95.735-1.021 1.342-1.876.599-.914.994-1.562.394-.648.466-1.016.021-.302-.412-1.112a20 20 0 0 0-1.025-1.691 56 56 0 0 0-1.083-1.683q-.525-.828-.706-1.074l.719-.451q.504.442 1.217 1.098.711.656 1.464 1.395.72.714 1.498 1.42.745.68 1.342 1.142L416 572.046l-3.968 5.143-.597-.461q.231-.298.471-.748.241-.449.104-.82-.194-.573-1.286-1.627a40 40 0 0 0-2.692-2.342 117 117 0 0 0-3.516-2.713l-3.583-2.765-3.55-2.739a115 115 0 0 0-3.484-2.688 40 40 0 0 0-2.948-2.01q-1.296-.789-1.9-.831-.393-.039-.766.308-.375.346-.604.645l-.598-.46 4.352-5.64 6.528-8.461 1.294.999 1.478 1.034q.723.505 1.419 1.042.69.48 1.212.83l-.254.81a46 46 0 0 0-1.067-.401 22 22 0 0 0-1.601-.6 12 12 0 0 0-1.652-.534q-.803-.195-1.089-.099-.279.156-.78.669-.509.454-1.131 1.191-.597.705-1.321 1.575a61 61 0 0 0-1.441 1.799q-.366.405-.372.824-.006.42.308.767.587.612 1.671 1.607 1.052.97 2.427 2.138t2.975 2.454a207 207 0 0 0 6.669 5.146q1.685 1.247 3.162 2.281 1.478 1.035 2.716 1.831 1.204.772 1.945 1.183.45.241.853.13.37-.138.704-.569m-13.353-6.704-.896-.691a549 549 0 0 0 2.622-3.535q1.01-1.445 1.263-2.254.149-.468-.269-1.161a7.5 7.5 0 0 0-.987-1.396 52 52 0 0 0-1.148-1.256q-.587-.612-.767-.858l.552-.579q1.003.827 2.305 1.884l2.654 2.048 2.654 2.048q1.32.965 2.407 1.752l-.454.655q-.25-.087-.957-.474a46 46 0 0 0-1.539-.817 7.4 7.4 0 0 0-1.602-.6q-.776-.23-1.223.008-.686.477-1.794 1.845a256 256 0 0 0-2.821 3.381m13.025-10.628.655-1.024q2.247 1.386 4.364 2.042 2.103.599 3.881.541 1.742-.081 3.02-.756 1.3-.711 1.973-1.922.493-.927.544-1.94a4.8 4.8 0 0 0-.295-2.029 6.6 6.6 0 0 0-1.212-1.917q-.786-.95-2.031-1.646-1.812-1.057-3.543-1.071a12.4 12.4 0 0 0-3.514.441 26 26 0 0 0-3.464 1.218q-1.717.743-3.406 1.205a14 14 0 0 1-3.42.45q-1.71-.048-3.427-1.095-1.576-.959-2.404-2.232-.861-1.297-1.087-2.734a7.6 7.6 0 0 1 .105-2.966 8.6 8.6 0 0 1 1.165-2.836 9.3 9.3 0 0 1 1.282-1.618q.674-.663 1.326-1.141a10 10 0 0 1 1.252-.792q.621-.349 1.104-.638l-1.008-.991.519-.812q.059-.014.764.438l1.731 1.106q1.046.619 2.27 1.35 1.187.71 2.269 1.351a64 64 0 0 1 2.459 1.522l-.621.895q-2.22-1.119-4.137-1.698-1.953-.601-3.512-.652-1.594-.073-2.758.425a4 4 0 0 0-1.841 1.559 4.2 4.2 0 0 0-.63 1.686 4.4 4.4 0 0 0 .045 1.72q.191.868.73 1.66.525.734 1.373 1.275 1.413.902 2.981.86 1.533-.065 3.173-.608a47 47 0 0 0 3.461-1.369 21 21 0 0 1 3.673-1.234 13 13 0 0 1 3.876-.308q2.002.135 4.096 1.373 1.846 1.081 2.968 2.593a8.15 8.15 0 0 1 1.434 3.204q.369 1.678.045 3.51-.337 1.773-1.363 3.455-1.128 1.766-2.547 2.898-1.432 1.074-2.806 1.589l1.149 1.082-.542.848q-.035-.022-.799-.462a74 74 0 0 0-1.894-1.16l-2.331-1.489a87 87 0 0 0-2.388-1.477 48 48 0 0 0-1.895-1.16zm10.944-17.309.573-1.071q2.347 1.207 4.509 1.698 2.145.433 3.912.238 1.731-.214 2.952-.988 1.24-.809 1.819-2.068.42-.964.391-1.977a4.8 4.8 0 0 0-.451-1.999 6.6 6.6 0 0 0-1.356-1.819q-.858-.886-2.153-1.483-1.887-.915-3.616-.793a12.4 12.4 0 0 0-3.469.711 26 26 0 0 0-3.359 1.483 26 26 0 0 1-3.302 1.466 14 14 0 0 1-3.375.713q-1.708.085-3.502-.827-1.646-.832-2.569-2.039a6.8 6.8 0 0 1-1.296-2.641 7.6 7.6 0 0 1-.125-2.966 8.6 8.6 0 0 1 .942-2.917 9.3 9.3 0 0 1 1.153-1.712q.62-.714 1.234-1.241a10 10 0 0 1 1.187-.886 53 53 0 0 0 1.05-.721l-1.081-.911.455-.85q.056-.018.795.378l1.811.968q1.092.536 2.368 1.171 1.239.615 2.368 1.171a62 62 0 0 1 2.569 1.326l-.551.941q-2.298-.943-4.255-1.372-1.993-.448-3.552-.379-1.595.05-2.717.638a4 4 0 0 0-1.715 1.697 4.2 4.2 0 0 0-.497 1.73 4.4 4.4 0 0 0 .178 1.711q.258.85.856 1.598.581.691 1.468 1.165 1.478.79 3.038.627 1.524-.183 3.117-.852a47 47 0 0 0 3.344-1.633 21.3 21.3 0 0 1 3.567-1.515 13 13 0 0 1 3.841-.607q2.006-.02 4.189 1.052 1.924.935 3.16 2.355a8.1 8.1 0 0 1 1.678 3.083q.498 1.645.317 3.496-.2 1.794-1.091 3.551-.988 1.847-2.316 3.086-1.344 1.182-2.674 1.801l1.229.99-.474.887a90 90 0 0 0-.833-.398 73 73 0 0 0-1.978-1.01l-2.439-1.304a89 89 0 0 0-2.496-1.287 47 47 0 0 0-1.978-1.01z" opacity=".76"/><path fill="#F9F2E2" d="M128.003 68.37q.432.934 1.349 2.413.928 1.4 2.161 3.201a262 262 0 0 1 2.679 3.789 236 236 0 0 0 3.107 4.165 246 246 0 0 0 3.996-3.329q1.531-1.308 2.005-2.162.264-.483-.045-1.44a17 17 0 0 0-.878-2.072 18 18 0 0 0-1.01-1.97 20 20 0 0 1-.693-1.37l.956-.588q1.006 1.41 2.317 3.222l2.711 3.554 2.711 3.554a778 778 0 0 0 2.495 3.086l-.855.723q-.291-.2-1.069-.942a18 18 0 0 0-1.666-1.54 14.6 14.6 0 0 0-1.732-1.349q-.877-.596-1.446-.513-.948.231-2.615 1.362a136 136 0 0 0-4.233 3.018l1.423 1.866q.949 1.245 2.213 2.81 1.23 1.52 2.63 3.263 1.411 1.665 2.652 3.108 1.285 1.41 2.3 2.462 1.025.975 1.562 1.127.225.111.637.006l.847-.364q.433-.26.823-.487l.577-.44.61.799-10.173 7.76-.61-.8q.4-.305.865-.8t.416-1.021q-.038-.603-.752-1.815a36 36 0 0 0-1.767-2.869 70 70 0 0 0-2.385-3.31 159 159 0 0 0-2.463-3.322 101 101 0 0 0-2.213-2.81l-1.423-1.865-3.626-4.754a156 156 0 0 0-3.558-4.664q-1.705-2.143-3.103-3.607-1.397-1.464-2.159-1.726-.494-.186-1.094.132t-1.001.623l-.61-.8 7.597-5.794 11.372-8.675 1.322 1.732 1.457 1.91 1.423 1.866q.723.855 1.275 1.487l-.651.99q-.326-.245-1.236-.885a29 29 0 0 0-1.855-1.326q-.978-.729-1.944-1.258-.92-.563-1.367-.503-.369.07-1.191.557-.779.454-1.79 1.155a61 61 0 0 0-2.211 1.616 80 80 0 0 0-2.433 1.785q-.611.396-.763.934-.153.537.132 1.094m45.83-7.533q-2.005-3.743-4.164-6.707-2.109-2.991-4.186-4.857-2.028-1.892-4.071-2.51t-3.913.386q-1.872 1.002-2.489 3.044-.595 1.966-.215 4.806.403 2.762 1.724 6.176 1.344 3.337 3.323 7.03a77 77 0 0 0 4.118 6.859q2.161 3.089 4.318 5.102 2.206 1.987 4.252 2.73 2.094.717 3.966-.287 1.872-1.002 2.463-3.094.564-2.14.033-5.025-.482-2.91-1.856-6.422-1.325-3.538-3.303-7.231m-17.02-14.969q2.61-1.398 5.407-1.502 2.845-.13 5.685 1.264 2.838 1.395 5.674 4.44 2.885 3.019 5.497 7.894 2.586 4.827 3.553 9 .991 4.095.685 7.43-.333 3.282-1.939 5.728-1.583 2.37-4.193 3.768a11.7 11.7 0 0 1-5.46 1.404q-2.876-.045-5.843-1.56-2.945-1.593-5.807-4.686-2.888-3.144-5.474-7.97-2.586-4.827-3.523-8.825-.964-4.047-.552-7.184.384-3.185 2.021-5.456 1.657-2.347 4.269-3.745m29.384 9.745-1.747-5.425a154 154 0 0 0-1.799-5.584q-.927-2.695-1.79-4.648-.881-2.005-1.459-2.524-.44-.27-1.111-.17-.69.045-1.169.2l-.308-.957 10.903-3.512.308.957q-.479.154-1.012.503-.551.294-.75.77-.203.828.235 2.917t1.242 4.766l1.815 5.638q.996 2.908 1.818 5.46.582 1.809 1.214 3.953a85 85 0 0 0 1.443 4.114 39 39 0 0 0 1.833 3.87q1.043 1.779 2.303 2.957 1.313 1.162 2.917 1.585 1.656.405 3.714-.316 1.489-.48 2.451-1.318.963-.838 1.538-1.787.612-1.018.835-2.147a8.7 8.7 0 0 0 .147-2.278q.011-2.88-.962-6.264a242 242 0 0 0-2.24-7.32l-.702-2.181-.754-2.34-1.439-4.468a80 80 0 0 0-1.459-4.167q-.74-1.934-1.381-3.195-.606-1.33-1.149-1.743-.403-.34-1.075-.24-.69.045-1.169.2l-.308-.958 7.765-2.5.308.957a5 5 0 0 0-1.065.519q-.604.312-.733.823-.165.582.033 1.926.235 1.275.694 3.064t1.127 3.864l2.295 7.126q.516 1.419.944 2.749a260 260 0 0 1 2.189 7.16q1.112 3.635 1.113 6.92.003 3.288-1.668 5.938-1.617 2.634-6.031 4.056-4.467 1.44-7.424.278-2.904-1.178-4.873-3.83-1.97-2.654-3.259-6.289a519 519 0 0 1-2.348-7.11m40.576 10.499-7.196.987-.136-.996q.553-.076 1.195-.333.64-.258.809-.675.241-.711.218-2.117.023-1.47-.141-3.082a95 95 0 0 0-.378-3.163l-.334-2.436-.099-.72-.121-.885 4.151-.57zm-6.183-13.42a161 161 0 0 0-.553-4.436q-.34-2.49-.761-5.14a259 259 0 0 0-.792-5.362 95 95 0 0 0-.772-4.801q-.414-2.2-.848-3.719-.387-1.582-.739-2.098-.486-.666-1.277-.67a5.3 5.3 0 0 0-1.51.094l-.136-.997 9.023-1.238 2.435-.334q3.773-.461 6.369-.028 2.645.37 4.37 1.431t2.632 2.74q.955 1.618 1.228 3.61.444 2.816-.28 4.946a9.6 9.6 0 0 1-2.257 3.693q-1.486 1.5-3.727 2.43-2.186.92-4.78 1.332l-3.314.51 1.01 7.363zm2.995-27.087q-.553.075-.841.454-.239.314-.17.813l2.208 16.503 2.539-.405q2.546-.35 3.911-1.495 1.359-1.202 1.888-2.684.577-1.545.579-3.181a23 23 0 0 0-.196-3.075 15 15 0 0 0-.657-2.73 7.1 7.1 0 0 0-1.479-2.56q-.997-1.104-2.599-1.674-1.545-.578-3.966-.133zm.033 40.94-1.811-14.02 4.097-.562.121.886q.11.38.154.712l.334 2.435q.206 1.495.489 3.148a38 38 0 0 0 .639 3.014q.411 1.354.834 1.972.275.357.962.432t1.241 0l.136.996zm.976-22.073 7.055-1.193q2.562-.239 4.254.995t2.818 3.28q1.119 1.99 1.848 4.427a759 759 0 0 1 1.35 4.496q.677 2.05 1.365 3.366t1.739 1.17q.617-.027.936-.579.375-.558.654-.992l.697.976q-.336.836-1.123 1.677a7.7 7.7 0 0 1-1.833 1.436 5.85 5.85 0 0 1-2.209.754q-1.218.167-2.424-.4-1.261-.56-1.939-2.216a43 43 0 0 1-1.322-3.88 118 118 0 0 0-1.302-4.558 16.8 16.8 0 0 0-2.007-4.35 9.8 9.8 0 0 0-3.261-3.218q-1.977-1.251-5.296-1.19m33.029 2.609 1.619.072q-.101 3.52.553 6.4.713 2.829 1.965 4.842 1.254 1.959 2.887 2.982 1.688 1.026 3.534.997a6.1 6.1 0 0 0 2.603-.667 6.4 6.4 0 0 0 2.145-1.694q.89-1.135 1.406-2.677.572-1.54.546-3.444.013-2.796-1.128-4.804a16.5 16.5 0 0 0-2.852-3.763 34 34 0 0 0-3.717-3.186 34 34 0 0 1-3.663-3.128 18.8 18.8 0 0 1-2.801-3.65q-1.085-2.005-1.021-4.687.054-2.458.973-4.263.922-1.86 2.431-3.08a10.2 10.2 0 0 1 3.495-1.857 11.5 11.5 0 0 1 4.051-.546q1.508.068 2.723.402t2.203.77q.987.435 1.748.917.817.483 1.473.848l.473-1.824 1.283.057q.054.059.004 1.175l-.122 2.735q-.017 1.621-.046 3.521-.027 1.845-.045 3.522a85 85 0 0 1-.067 2.738l-.05 1.116-1.449-.12q-.188-3.31-.798-5.909-.608-2.655-1.589-4.49-.978-1.89-2.331-2.9a5.35 5.35 0 0 0-3.028-1.086 5.7 5.7 0 0 0-2.367.397 5.9 5.9 0 0 0-1.955 1.2 6.4 6.4 0 0 0-1.43 1.949q-.495 1.096-.556 2.436-.1 2.232.995 4.015 1.098 1.728 2.819 3.258a63 63 0 0 0 3.889 3.083 28.4 28.4 0 0 1 3.874 3.417 17.3 17.3 0 0 1 2.941 4.27q1.179 2.402 1.146 5.644-.015 2.852-1.013 5.156-.996 2.25-2.742 3.793-1.692 1.545-4.023 2.393-2.272.793-4.898.732-2.791-.126-5.045-1.009-2.195-.937-3.705-2.18l-.483 2.049-1.34-.06q.002-.056-.001-1.23a92 92 0 0 0 .076-2.962l.165-3.683q.09-2.01.111-3.743.08-1.786.077-2.96zm38.103-21.529q-1.449-.155-2.424-.109-.92.056-1.52.23-.6.173-.991.44l-.672.558q-.517.643-.92 1.59l-.787 1.787a40 40 0 0 0-.58 1.597q-.254.748-.489 1.102l-.973-.578q.154-.824.433-2.022.279-1.2.514-2.462.3-1.309.534-2.572.29-1.253.473-2.242l24.996 4.642-.419 2.252-.369 2.602q-.18 1.274-.404 2.483a98 98 0 0 0-.268 2.053l-1.17.18a10 10 0 0 1-.016-1.14q.023-.734.021-1.643.054-.9-.048-1.885-.09-1.04-.367-2l-.447-.651q-.258-.446-.812-.833-.498-.377-1.381-.825-.827-.438-2.126-.793-.76-.197-1.259.05-.501.248-.723.833-.519 1.267-1.038 3.444-.507 2.123-1.042 4.694l-.959 5.164q-.435 2.646-.863 4.954-.53 2.856-1.147 5.868a288 288 0 0 0-1.006 5.723 76 76 0 0 0-.637 4.655q-.138 1.965.17 2.76.248.5.876.788.64.232 1.133.324l-.238.978-11.262-2.091.184-.989q.494.092 1.174.104.69-.043 1.046-.43.562-.578 1.094-2.525.587-1.936 1.132-4.564.555-2.681 1.126-5.757l1.091-5.879q.41-2.196.898-4.834.49-2.637.904-5.174.48-2.58.778-4.8.298-2.217.268-3.587.003-.624-.375-1.036-.38-.41-1.113-.434m22.18 45.736q1.546.488 3.074 1.028 1.599.507 2.934.92 1.407.38 2.392.61.986.23 1.481.168.391-.099 1.238-.985a26 26 0 0 0 1.715-2 72 72 0 0 0 1.682-2.072q.831-1.01 1.067-1.341l.871.722a93 93 0 0 1-2.043 4.434 61 61 0 0 0-1.177 2.488 28 28 0 0 0-.888 2.175l-15.046-5.384-8.165-2.889.336-.948a7 7 0 0 0 1.143.286q.67.119 1.082-.21.645-.483 1.527-2.304.882-1.822 1.848-4.385a156 156 0 0 0 1.975-5.583l4.008-11.325a154 154 0 0 0 1.957-5.53q.86-2.6 1.321-4.57.46-1.972.262-2.753-.114-.514-.709-.843a7 7 0 0 0-1.069-.497l.336-.948 8.954 3.169 13.432 4.752-.727 2.055-.696 2.302q-.339 1.125-.73 2.23-.32 1.073-.547 1.882l-1.131.014q.024-.406.063-1.518.09-1.095.095-2.278.075-1.218-.011-2.315-.086-1.098-.327-1.42-.313-.29-1.171-.711-.787-.456-1.98-.938-1.14-.462-2.544-1.018a83 83 0 0 0-2.878-1.078q-.666-.296-1.199-.128-.534.167-.844.709a51 51 0 0 0-1.341 2.785 105 105 0 0 0-1.699 3.963 200 200 0 0 0-1.872 4.79 276 276 0 0 0-3.747 10.587 198 198 0 0 0-1.575 4.955 114 114 0 0 0-1.191 4.201 52 52 0 0 0-.69 2.957q-.118.669.191 1.134.328.412 1.013.655m2.942-19.703.503-1.422q3.39 1.14 5.568 1.851 2.25.678 3.381.663.654-.006 1.358-.823a10 10 0 0 0 1.359-1.83q.602-1.032 1.114-1.977.531-.997.767-1.33l.963.46q-.63 1.614-1.428 3.703l-1.491 4.214-1.492 4.214a817 817 0 0 0-1.218 3.777l-1.019-.302q.006-.352.203-1.41.215-1.11.395-2.29a10 10 0 0 0 .095-2.278q-.033-1.078-.519-1.547-.89-.67-3.083-1.506a350 350 0 0 0-5.456-2.167m39.819-4.308q-.541-.292-.919-.178-.379.114-.644.606l-11.299 20.758-4.667-2.765q5.217-9.692 7.827-15.014 2.637-5.37 2.621-6.52-.007-.576-.492-1.09-.408-.537-1.419-1.018l.477-.886 8.118 4.37 1.82.98q5.877 3.226 7.733 7.207 1.904 4.007-.691 8.829-1.271 2.361-3.069 3.932a11.2 11.2 0 0 1-3.916 2.207q-2.146.685-4.537.414-2.393-.273-4.878-1.547l-4.258-2.228.893-1.424 2.952 1.59q1.673.9 3.273.873 1.65 0 3.149-.78 1.524-.83 2.868-2.264 1.37-1.483 2.379-3.478 1.192-2.214 1.597-4.027.453-1.786.124-3.296-.33-1.509-1.442-2.743-1.113-1.233-3.059-2.217zm-17.529 18.42 4.667 2.766-4.37 8.118q-1.748 3.248-1.569 4.803-.012.375.375.836.413.413 1.199.836l-.476.886-10.332-5.561.476-.886q.864.4 1.484.545.621.144.927-.072.636-.356 1.392-1.408.807-1.026 1.729-2.623a144 144 0 0 0 2.062-3.713zM365.2 78.189l1.289.982q-2.089 2.835-3.193 5.575-1.026 2.73-1.145 5.098-.084 2.324.673 4.095.803 1.805 2.337 2.834a6.1 6.1 0 0 0 2.518.935 6.4 6.4 0 0 0 2.728-.17q1.378-.425 2.682-1.398 1.348-.94 2.41-2.519 1.604-2.29 1.812-4.59.24-2.345-.2-4.718a34 34 0 0 0-1.238-4.736 34 34 0 0 1-1.228-4.658 18.8 18.8 0 0 1-.222-4.595q.252-2.266 1.833-4.434 1.445-1.99 3.229-2.948 1.818-1.003 3.752-1.145a10.2 10.2 0 0 1 3.93.465 11.5 11.5 0 0 1 3.641 1.86q1.2.915 2.008 1.882t1.372 1.888q.563.92.914 1.75.396.863.726 1.536l1.429-1.23 1.022.78q.01.078-.667.967l-1.659 2.177q-.937 1.323-2.044 2.868-1.073 1.5-2.045 2.868a83 83 0 0 1-1.614 2.212l-.677.889-1.122-.925q1.731-2.826 2.711-5.31 1.013-2.53 1.252-4.595.273-2.11-.262-3.712a5.35 5.35 0 0 0-1.869-2.618 5.7 5.7 0 0 0-2.172-1.022 5.9 5.9 0 0 0-2.289-.13 6.3 6.3 0 0 0-2.286.788q-1.033.618-1.846 1.685-1.354 1.778-1.47 3.867-.082 2.044.459 4.283a63 63 0 0 0 1.44 4.75q.852 2.475 1.236 5.015.383 2.54-.017 5.185-.4 2.646-2.275 5.291-1.638 2.334-3.771 3.66-2.099 1.28-4.415 1.553-2.27.307-4.668-.326-2.32-.642-4.443-2.19-2.222-1.692-3.57-3.703-1.27-2.021-1.803-3.903l-1.564 1.408-1.067-.813q.033-.045.7-1.011a93 93 0 0 0 1.75-2.39l2.235-2.933q1.22-1.6 2.224-3.012a63 63 0 0 0 1.75-2.39z"/><path fill="#12150F" d="M326.429 118.204c20.818 10.089 38.683 25.084 53.595 44.967 14.912 19.9 26.61 44.459 35.094 73.661q12.726 43.828 12.726 101.19c0 38.241-4.242 70.954-12.726 101.189-8.484 30.236-20.182 55.828-35.094 76.762s-32.777 37.093-53.595 48.462-43.317 17.062-67.479 17.062c-24.163 0-47.314-5.693-67.855-17.062-20.573-11.369-38.308-27.529-53.204-48.462-14.912-20.934-26.479-46.526-34.702-76.762s-12.334-64.228-12.334-101.96 4.111-70.429 12.334-99.648c8.223-29.202 19.79-53.761 34.702-73.661s32.647-35.009 53.204-45.361c20.541-10.336 43.186-15.503 67.855-15.503 24.668 0 46.661 5.036 67.479 15.126"/><path stroke="#7B5F53" stroke-width="1.746" d="M258.925 87.664c26.074 0 49.303 5.357 71.292 16.086q32.451 15.832 55.869 46.834l.741.989c15.272 20.517 27.371 45.711 36.284 75.584l.854 2.905c8.984 31.149 13.482 67.134 13.482 107.965 0 40.827-4.498 75.728-13.485 107.972-8.99 32.256-21.378 59.527-37.148 81.814q-23.654 33.43-56.634 51.562c-21.982 12.085-45.735 18.136-71.255 18.136-25.526 0-49.969-6.053-71.649-18.134v-.001q-32.591-18.13-56.223-51.563l-.737-1.048c-15.413-22.09-27.416-49.009-35.993-80.76-8.71-32.244-13.071-68.516-13.071-108.803s4.36-75.169 13.07-106.323l-.002-.001c8.712-31.145 20.958-57.304 36.72-78.481 15.519-20.85 33.917-36.742 55.191-47.73l1.015-.519c21.687-10.986 45.603-16.484 71.679-16.484Z" opacity=".3"/><path stroke="#5D5D2D" stroke-width="1.746" d="M258.962 110.935c23.774 0 44.953 4.862 65 14.597q30.055 14.593 51.612 43.392c14.373 19.219 25.666 42.961 33.863 71.231 8.192 28.269 12.296 60.929 12.296 97.991 0 37.058-4.103 68.736-12.298 98-8.199 29.277-19.495 54.026-33.874 74.25q-21.568 30.336-51.637 46.787c-20.04 10.966-41.694 16.457-64.962 16.457-23.272 0-45.557-5.493-65.322-16.454v-.001l-.927-.518q-29.123-16.406-50.334-46.271c-14.377-20.222-25.547-44.969-33.493-74.243-7.943-29.265-11.92-62.186-11.92-98.755 0-35.425 3.732-66.245 11.186-93.842l.732-2.66c7.945-28.268 19.111-52.007 33.483-71.224 14.149-18.919 30.922-33.339 50.318-43.308l.925-.472c19.771-9.968 41.577-14.957 65.352-14.957Z" opacity=".3"/><path stroke="#5D5D2D" stroke-width="1.746" d="M258.937 96.394c25.308 0 47.854 5.174 69.196 15.535q31.996 15.533 54.944 46.183c14.822 19.814 26.566 44.144 35.217 72.994l.828 2.807c8.719 30.081 13.086 64.834 13.086 104.269 0 39.431-4.366 73.138-13.088 104.278-8.727 31.153-20.75 57.489-36.056 79.012q-22.959 32.284-54.969 49.794c-21.334 11.671-44.388 17.516-69.158 17.516-24.775 0-48.499-5.847-69.541-17.513v-.001l-.986-.551q-31.005-17.463-53.582-49.244l-.001-.001c-15.305-21.521-27.193-47.855-35.65-79.006-8.454-31.14-12.687-66.17-12.687-105.08s4.233-72.598 12.685-102.684c8.456-30.08 20.341-55.343 35.64-75.794 15.301-20.454 33.484-35.97 54.551-46.596 21.048-10.609 44.262-15.918 69.571-15.918Z" opacity=".3"/><path fill="#B5966D" d="M237.783 248.275h9.071q-9.07 11.521-18.631 26.23t-17.405 31.133a191 191 0 0 0-12.502 33.339q-4.413 16.914-3.187 32.849 0 5.147.735 8.825.736 3.676 1.471 6.864.735 3.186 1.226 5.883.735 2.452.735 5.638 0 2.207-.735 4.658-.736 2.207-2.452 4.167-1.47 1.716-4.167 2.942t-6.374.98q-5.148-.489-8.334-3.432-2.942-3.186-3.432-8.825-.49-12.501 2.206-26.475 2.697-13.972 7.599-28.191a322 322 0 0 1 11.767-28.191q6.864-13.972 14.218-26.475 7.355-12.747 14.463-23.289 7.354-10.786 13.728-18.63m-83.593-23.043 94.625-.246-1.961 23.289-3.432.245q-8.826 0-18.876-.49-9.806-.736-18.631-.736-5.148 0-12.747-.245a63.4 63.4 0 0 0-14.709.736q-7.108 1.226-12.747 5.147-5.392 3.922-6.864 12.748h-5.393zm156.147 186.797q-14.953 0-25.74-6.864-10.54-7.11-17.159-19.366-6.374-12.258-9.071-28.927-2.696-16.67-1.716-36.281.49-20.346 5.148-37.997 4.659-17.649 12.503-30.642 8.09-12.993 19.366-20.592t25.739-8.335q8.826-.244 16.67 1.961 8.09 2.207 13.973 6.619 6.128 4.168 9.56 10.051 3.432 5.639 2.942 12.257-.245 6.62-3.922 10.051-3.432 3.432-8.825 2.696-4.413-.49-6.619-3.432-1.961-2.941-3.187-7.109a81 81 0 0 1-1.961-9.07q-.49-4.902-2.206-8.825-1.471-4.167-4.658-6.619-2.942-2.45-8.825-2.206-8.824.245-16.179 8.09-7.354 7.599-12.502 20.101-4.903 12.502-8.09 28.682-2.941 15.933-3.922 32.603-.735 16.425.735 32.359 1.471 15.689 5.393 28.191 3.923 12.257 10.296 19.611 6.619 7.354 15.689 6.864 6.619-.245 11.522-4.167 5.148-4.168 8.58-11.032t5.393-16.179q1.96-9.315 1.961-20.347.245-10.786-1.471-20.346t-5.393-16.67q-3.432-7.354-8.825-11.521t-12.502-3.923q-7.599.246-13.728 4.903-5.884 4.413-10.051 12.012-4.167 7.354-5.883 16.915t-.491 19.366l-10.05-19.856q2.206-8.091 6.619-15.444 4.412-7.354 10.295-12.993a47 47 0 0 1 13.728-8.825q7.845-3.432 16.915-3.922 11.277-.246 20.347 4.412 9.315 4.413 15.443 12.748 6.375 8.334 9.316 19.366 3.187 11.031 2.206 23.533-.98 12.748-5.638 23.289t-12.257 18.385q-7.355 7.599-17.405 12.012t-22.063 4.413"/><path fill="#F9F2E2" d="M199.844 446.267q-1.816 0-3.073.07-1.187.07-2.096.139a6.3 6.3 0 0 0-1.466.28 4 4 0 0 0-1.048.419q-.49.279-.908 1.327a63 63 0 0 0-.698 2.235l-.559 2.374q-.21 1.118-.419 1.607l-.908-.489q0-1.188.07-2.305.07-1.187.07-2.375a41 41 0 0 0 .069-2.374q.07-1.257.07-2.584h31.709v2.584l.139 2.374q.07 1.188.07 2.375.07 1.117.14 2.305l-.978.489a56 56 0 0 1-.419-1.607 22 22 0 0 0-.559-2.374 16 16 0 0 0-.698-2.235q-.42-1.048-.838-1.327a4 4 0 0 0-1.118-.419 11 11 0 0 0-1.536-.21 23 23 0 0 0-2.165-.209 49 49 0 0 0-2.864-.07q-.978-.07-1.536.349-.56.418-.699 1.257-.35 1.746-.489 4.68a233 233 0 0 0-.209 6.355v6.985q.07 3.561.07 6.635 0 3.84-.07 8.031 0 4.122.07 7.753.069 3.632.279 6.356.28 2.723.838 3.631.418.629 1.257.838.838.14 1.467.14l-.07.978h-11.873v-.978q.629 0 1.467-.14.837-.209 1.187-.838.558-.908.768-3.631.28-2.724.349-6.356.07-3.702.07-7.822v-14.528q0-3.561-.07-6.984 0-3.422-.139-6.356-.14-2.933-.489-4.749-.14-.839-.699-1.257-.558-.419-1.466-.349m38.711 54.756.14-11.524q.21-2.793.14-5.797a250 250 0 0 1-.07-5.866q-.07-2.445-.14-5.378 0-3.003-.698-5.658-.699-2.654-2.375-4.4t-5.029-1.746q-2.514 0-4.12 1.188t-2.584 3.073q-.909 1.886-1.327 4.26a38 38 0 0 0-.419 4.47q-.42.559-1.188.768-.698.21-1.327.21-.698 0-1.327-.419-.628-.49-.628-1.327 0-3.213 1.117-5.727t3.003-4.261a13.3 13.3 0 0 1 4.331-2.793 14.5 14.5 0 0 1 5.308-.978q2.374 0 4.4.838 2.094.768 3.631 2.235t2.515 3.562 1.117 4.54q.07 1.187.07 2.304.07 1.117.07 2.235 0 1.537-.07 4.889a177 177 0 0 0 0 6.984q.07 3.633.279 6.775.28 3.143.839 4.051.209.28.488.419.35.07.629.07.56 0 1.117-.07.56-.14 1.048-.14h.349a.6.6 0 0 1 .28.07l-.419.978a9.8 9.8 0 0 0-2.305.559l-2.235.698q-1.117.35-2.235.629a9.8 9.8 0 0 1-2.375.279m-10.616.14a14 14 0 0 1-3.911-.419 9.8 9.8 0 0 1-3.562-1.537 9.6 9.6 0 0 1-2.514-2.933q-.908-1.816-.768-4.33.07-2.654 1.466-4.4 1.398-1.746 3.492-3.004a30.3 30.3 0 0 1 4.61-2.235 50 50 0 0 0 4.819-2.165 23 23 0 0 0 4.33-2.793q1.956-1.677 2.864-4.191l.07 2.584a7.43 7.43 0 0 1-2.096 3.213 22 22 0 0 1-3.212 2.375 72 72 0 0 1-3.772 2.025 24.7 24.7 0 0 0-3.562 2.095 11.4 11.4 0 0 0-2.724 2.654q-1.118 1.467-1.257 3.632-.14 1.677.419 3.003a5.5 5.5 0 0 0 1.607 2.096 6.3 6.3 0 0 0 2.444 1.187q1.396.35 2.934.279a10.9 10.9 0 0 0 3.282-.768 9.7 9.7 0 0 0 2.794-1.816 9.7 9.7 0 0 0 2.025-2.724 8.9 8.9 0 0 0 .978-3.492l.489 4.121a16.2 16.2 0 0 1-2.026 3.003 12.2 12.2 0 0 1-2.584 2.305 11.8 11.8 0 0 1-3.073 1.536 11.3 11.3 0 0 1-3.562.699m43.522-29.613a18.5 18.5 0 0 0-1.117-4.33q-.839-2.166-2.165-3.842-1.257-1.746-3.003-2.793-1.677-1.118-3.772-1.118a6.13 6.13 0 0 0-3.003.768 8.3 8.3 0 0 0-2.375 1.886 9.2 9.2 0 0 0-1.536 2.724 9.1 9.1 0 0 0-.559 3.143q0 3.282 1.467 5.168a13.4 13.4 0 0 0 3.701 3.143 35 35 0 0 0 4.819 2.095q2.654.909 4.82 2.235a10.85 10.85 0 0 1 3.701 3.422q1.537 2.095 1.537 5.728 0 2.932-1.048 5.308t-2.863 3.981a11.6 11.6 0 0 1-4.051 2.304q-2.235.839-4.68.699a12.4 12.4 0 0 1-3.492-.489 30 30 0 0 1-3.073-1.118 48 48 0 0 1-2.724-1.187 18 18 0 0 0-2.305-.978q-.349-.489-.558-1.885a31 31 0 0 1-.14-3.073q0-1.677.14-3.423.21-1.746.558-3.003a.5.5 0 0 1 .21-.07h.629q.348 2.095 1.187 4.54a19.6 19.6 0 0 0 2.235 4.54 13.8 13.8 0 0 0 3.352 3.422q2.026 1.327 4.68 1.397 1.745 0 3.143-.559a6.85 6.85 0 0 0 2.374-1.746q1.048-1.118 1.607-2.724.558-1.675.558-3.771 0-3.284-1.536-5.169-1.467-1.885-3.702-3.073-2.165-1.257-4.819-2.165a27 27 0 0 1-4.819-2.235 13.5 13.5 0 0 1-3.702-3.562q-1.467-2.164-1.466-6.006 0-3.003 1.047-5.168 1.118-2.235 2.864-3.632a10.6 10.6 0 0 1 3.981-2.096q2.235-.698 4.47-.628 1.745.07 3.143.559a31 31 0 0 1 2.723.908q1.327.418 2.445.838a7.3 7.3 0 0 0 2.165.349q.349 1.257.419 2.863a24 24 0 0 1 .07 3.143 24 24 0 0 1-.279 2.794q-.14 1.188-.35 1.606l-.279.14a.5.5 0 0 0-.21.07.5.5 0 0 0-.209.07zm15.408 5.447q.558-.14 1.117-.349t1.187-.419q.63-.21 1.327-.209.769-.07 1.607.139 1.047.21 2.025 2.165 1.048 1.887 2.026 4.47a132 132 0 0 1 2.095 5.378 56 56 0 0 0 2.165 5.169q1.117 2.234 2.305 3.492 1.186 1.186 2.514.489.49-.21 1.118-.839a9.6 9.6 0 0 0 1.187-1.466l.629 1.117a17 17 0 0 1-1.048 1.816 7 7 0 0 1-1.257 1.327 6.4 6.4 0 0 1-1.467.838 7.4 7.4 0 0 1-1.886.489q-2.025.14-3.492-1.048-1.467-1.257-2.584-3.352t-2.095-4.749a106 106 0 0 0-1.956-5.378 39.6 39.6 0 0 0-2.374-5.099q-1.328-2.444-3.143-3.981m-12.083-29.543.489-.978q1.047-.139 2.165-.419 1.118-.349 2.235-.628 1.118-.35 2.235-.629a10.6 10.6 0 0 1 2.444-.279l-.139 39.111v3.283q0 2.165.07 4.47.069 2.235.279 4.19t.698 2.794q.21.56 1.048.768.839.21 1.536.21v.908h-11.593v-.908q.698 0 1.466-.21.839-.209 1.118-.698.419-.908.628-2.864t.28-4.19q.14-2.305.139-4.4v-15.924q0-3.772-.069-7.543a284 284 0 0 0-.21-7.054 119 119 0 0 0-.349-5.518q-.21-2.374-.559-3.143-.279-.489-.768-.489a4 4 0 0 0-1.048 0q-.489.07-1.047.21a2.6 2.6 0 0 1-1.048-.07m7.543 38.344-1.467-1.747q1.677-2.723 3.981-5.587a724 724 0 0 1 4.68-5.587q2.305-2.724 4.33-5.099 2.095-2.374 3.143-4.051.279-.418 0-.768-.28-.419-.838-.698a5 5 0 0 0-1.257-.419 9 9 0 0 0-.978-.28l.07-1.327h11.803v1.397q-1.816.21-4.051 1.746t-4.61 3.842a82 82 0 0 0-4.609 5.028 303 303 0 0 0-4.26 5.308 96 96 0 0 0-3.562 4.819 150 150 0 0 0-2.375 3.423m48.607-14.248a18.5 18.5 0 0 0-1.117-4.33q-.839-2.166-2.165-3.842-1.257-1.746-3.003-2.793-1.677-1.118-3.772-1.118a6.13 6.13 0 0 0-3.003.768 8.3 8.3 0 0 0-2.375 1.886 9.2 9.2 0 0 0-1.536 2.724 9.1 9.1 0 0 0-.559 3.143q0 3.282 1.467 5.168a13.4 13.4 0 0 0 3.701 3.143 35 35 0 0 0 4.819 2.095q2.654.909 4.82 2.235a10.85 10.85 0 0 1 3.701 3.422q1.537 2.095 1.537 5.728 0 2.932-1.048 5.308t-2.863 3.981a11.6 11.6 0 0 1-4.051 2.304q-2.235.839-4.68.699a12.4 12.4 0 0 1-3.492-.489 30 30 0 0 1-3.073-1.118 48 48 0 0 1-2.724-1.187 18 18 0 0 0-2.305-.978q-.349-.489-.558-1.885a31 31 0 0 1-.14-3.073q0-1.677.14-3.423.21-1.746.558-3.003a.5.5 0 0 1 .21-.07h.629q.348 2.095 1.187 4.54a19.6 19.6 0 0 0 2.235 4.54 13.8 13.8 0 0 0 3.352 3.422q2.026 1.327 4.68 1.397 1.745 0 3.143-.559a6.85 6.85 0 0 0 2.374-1.746q1.048-1.118 1.607-2.724.558-1.675.558-3.771 0-3.284-1.536-5.169-1.467-1.885-3.702-3.073-2.165-1.257-4.819-2.165a27 27 0 0 1-4.819-2.235 13.5 13.5 0 0 1-3.702-3.562q-1.466-2.164-1.466-6.006 0-3.003 1.047-5.168 1.118-2.235 2.864-3.632a10.6 10.6 0 0 1 3.981-2.096q2.235-.698 4.47-.628 1.745.07 3.143.559a31 31 0 0 1 2.723.908q1.327.418 2.445.838a7.3 7.3 0 0 0 2.165.349q.349 1.257.419 2.863a24 24 0 0 1 .07 3.143 24 24 0 0 1-.279 2.794q-.14 1.188-.35 1.606l-.279.14a.5.5 0 0 0-.21.07.5.5 0 0 0-.209.07z"/></svg>