<svg xmlns="http://www.w3.org/2000/svg" width="82" height="15" fill="none"><path fill="#B5966D" d="m12.069 9.663.616-.532.682-1.596-.98-.405-.916 2.575-.637.532-.808 1.427h.808zm-3.513 2.001h1.022l1.064-2.001-.192-.361zm2.704-2.939.893-1.68-1.256-.51-.126 1.105.126.192-.126.98zm1.915.49-1.554 2.448h1.64c.874-1.213 1.277-2.47 1.362-3.704l-.98-.34zm-5.811 5.386c2.064 0 4.3-.916 5.598-2.596H1.746c1.595 1.959 3.81 2.596 5.618 2.596"/><path fill="#B5966D" d="m3.193 8.238.553-1.532.32-.15-1.257 3.852-.893 1.256H2.3l1.51-1.81.725-2.809.276.385c-.107 1.298-.063.979-.15 1.703l-1.808 2.533h.426l1.766-1.34.106.042-.66 1.298h1.958L9.45 9.665l.917-3.341 2.214-.106-.851-.553-4.852-.808C5.813 3.73 5.77 3.664 5.77 3.664l1.276.106-.916-.851v-.872l1.193.214 3.257 1.893 3.767 1.021C13.962 3.407 11.685 0 7.406 0 3.128 0 0 3.639 0 7.088c0 2.298.766 3.617 1.448 4.597a199 199 0 0 0 1.361-3.236l.384-.213zM.511 7.088c0-3.194 2.725-6.62 6.895-6.62 2.917 0 5.321 1.852 6.172 4.023l-3.3-.916-2.937-1.64-1.448-.234-.66 1.406-.533.276-.829 2.107c0-.042-.574.255-.574.255s-1.235 3.3-1.851 4.96C.956 9.834.509 8.918.509 7.088zm81.039 5.398c-.285 0-.541-.045-.675-.149-.12-.104-.194-.256-.194-.75v-9.16l-2.883.226v.45h.271c.164 0 .42.059.554.196.226.223.226.691.226.9v7.388c0 .539-.074.646-.193.75-.134.104-.346.15-.542.15h-.09v.449h3.649v-.45h-.122M68.91 4.8c.63 0 1.14-.51 1.14-1.141s-.512-1.126-1.14-1.126c-.63 0-1.141.495-1.141 1.126s.509 1.14 1.14 1.14M46.69 12.337c-.119-.104-.196-.256-.196-.75v-9.16l-2.883.226v.45h.135c.345 0 .553.059.69.196.227.223.227.51.227.9V6.39c-.149-.3-.554-.706-1.56-.706-2.029 0-3.05 2.028-3.05 3.723s.586 3.74 2.808 3.74c1.155 0 1.831-.84 1.969-1.307l.03 1.096h2.688v-.45h-.196c-.271 0-.524-.045-.661-.149m-2.027-2.251c0 .795-.164 1.245-.286 1.546-.179.42-.557.705-1.007.705-1.185 0-1.245-2.057-1.245-2.927 0-1.007.015-3.139 1.293-3.139 1.126 0 1.245 1.486 1.245 2.356zm16.8 2.191c-.134-.196-.118-.45-.118-1.036V8.042c0-1.47-.39-2.358-2.014-2.358-1.08 0-1.727.646-1.983 1.307h-.015l-.03-1.096H54.63v.45h.286c.211 0 .435.015.587.211.134.194.119.587.119 1.052v3.618c0 .601.03.902-.105 1.051-.119.134-.33.212-.66.212h-.227v.45h3.83v-.45h-.212c-.39 0-.554-.075-.676-.212-.134-.149-.104-.45-.104-1.051V8.629c0-.587.104-1.185.301-1.516.226-.36.554-.524.84-.524.405 0 .902.075.902 1.11v5.242h2.823v-.45h-.286c-.193 0-.45-.014-.586-.21zM54.18 9.183c0-1.906-.854-3.5-3.046-3.5-1.846 0-3.303 1.502-3.303 3.723s1.11 3.74 3.362 3.74c1.921 0 2.898-1.607 2.898-2.611h-.584c0 .765-.66 1.998-2.058 1.998-1.006 0-1.366-.902-1.515-1.757-.15-.858-.105-1.59-.105-1.59h4.354zm-3.061-3.11c1.14 0 1.2 1.862 1.185 2.628h-2.463c.03-.706.045-2.627 1.278-2.627m15.015 6.006a.54.54 0 0 1-.48.272c-.524 0-.586-.465-.586-.947V6.36h1.381v-.464h-1.41V2.653h-.466c0 1.066-.87 3.243-2.507 3.243h-.12v.464h1.263v4.819c0 .87.257 1.968 1.773 1.968.854 0 1.426-.256 1.726-.887.197-.42.257-1.111.257-1.936h-.554c0 .539.015 1.352-.271 1.757zm3.886.198c-.149-.197-.134-.602-.134-1.066V5.896H66.96v.465h.152c.27 0 .554.014.706.151.256.209.226.632.226.93v3.767c0 .464 0 .87-.134 1.066s-.376.211-.587.211h-.226v.45h3.782v-.45h-.286c-.211 0-.438-.015-.572-.211zm7.103.059c-.12-.09-.197-.256-.197-.766V8.117c0-2.058-1.441-2.433-2.763-2.433-1.486 0-2.645.676-2.645 1.668 0 .735.572 1.05 1.051 1.05.587 0 1.007-.449 1.007-.854 0-.524-.36-.825-.885-.825-.148 0-.345.045-.435.182v-.03c.09-.256.706-.69 1.427-.69 1.066 0 1.412.479 1.412 1.292v1.185c-2.296.45-3.964 1.006-3.964 2.671 0 .706.497 1.817 2.073 1.817 1.006 0 1.905-.766 2.028-1.352.014 0 .044 1.14.03 1.14h2.522v-.45h-.152a.82.82 0 0 1-.51-.148zm-2.028-2.103c0 .542-.075 1.126-.227 1.397-.134.27-.36.646-.992.646-.449 0-.854-.405-.854-1.2 0-1.367.736-1.712 2.073-1.969zM22.233 8.478c2.132 0 3.919-.825 3.919-2.898 0-2.177-1.817-2.927-3.92-2.927h-4.115v.45h.316c.39 0 .676.014.825.104.241.119.316.45.316.929v7.403c0 .405-.075.631-.227.765-.149.12-.45.179-.81.179h-.42v.45h4.76v-.45H22.5c-.435 0-.676-.075-.81-.212-.149-.163-.179-.42-.179-.735V8.472h.72zm-.72-5.376h.72c1.668 0 1.965 1.263 1.965 2.478s-.3 2.403-1.965 2.403h-.72zm9.367 2.582c-1.17 0-1.682 1.14-1.756 2.013h-.015l-.075-1.802h-2.552v.45h.164c.405 0 .586.06.706.316.104.24.134.917.134 1.816v2.749s.03.72-.134.991c-.12.197-.36.271-.84.271h-.45v.45h4.744v-.45h-.676c-.197 0-.542-.014-.676-.21-.134-.197-.134-.573-.134-1.037V10.16c0-.888.164-3.169.884-3.77h.015c-.074.163-.074.286-.074.39 0 .3.316.676.84.676.586.015.914-.435.914-.885 0-.586-.39-.887-1.021-.887zm8.002 6.594c-.134-.197-.164-.572-.164-1.037V5.897h-2.853v.45h.152c.465 0 .631.06.75.196.135.15.12.661.12 1.278v2.206c0 .39 0 .78-.09 1.126-.148.602-.553 1.051-1.066 1.051-.3 0-.914-.03-.914-1.155v-5.15h-2.552v.45h.104c.39 0 .468.089.51.166.059.09.089.42.089 1.305v3.031c0 1.308.375 2.3 2.072 2.3 1.022 0 1.787-.736 1.966-1.308 0 .045.015 0 .015 0l.03 1.096h2.659v-.45h-.271c-.212 0-.42-.015-.557-.211"/></svg>