<svg xmlns="http://www.w3.org/2000/svg" width="184" height="236" fill="none"><path stroke="#B5966D" stroke-width="1.319" d="M91.74 31.061c17.55 0 32.819 7.448 43.681 21.802 10.849 14.337 17.272 35.516 17.272 62.956 0 27.167-6.423 49.162-17.26 64.385-10.848 15.236-26.113 23.672-43.693 23.672-17.717 0-32.914-8.436-43.659-23.675-10.734-15.223-17.018-37.218-17.018-64.382s6.285-48.342 17.029-62.747c10.757-14.423 25.957-22.01 43.648-22.01Z"/><path stroke="#B5966D" stroke-width="1.319" d="M91.898 36.337c15.862 0 29.657 6.988 39.464 20.436 9.794 13.43 15.587 33.263 15.587 58.952 0 25.434-5.794 46.03-15.576 60.288-9.792 14.273-23.582 22.188-39.475 22.188-16.018 0-29.747-7.915-39.447-22.191-9.688-14.259-15.357-34.854-15.357-60.285s5.668-45.262 15.367-58.756c9.713-13.513 23.446-20.632 39.436-20.632Z" opacity=".3"/><path stroke="#B5966D" stroke-width="1.319" d="M55.47 117.152c0-39.209 16.465-56.79 35.442-56.79 7.395 0 14.93 2.093 20.511 7.395l2.372-7.395h3.628l-1.117 36.139h-4.046c-.977-10.186-5.721-31.116-19.395-31.116-13.534 0-21.209 22.186-21.209 51.767 0 30.557 4.465 53.859 19.953 53.998 10.605.14 15.07-11.72 15.209-19.674 0-4.465.558-22.743-2.372-27.487-.977-1.675-7.395-2.233-9.07-2.233v-4.046h32.511v4.046c-1.674 0-4.325.279-5.302 1.954-1.256 2.093-1.814 5.999-2.093 13.813l-.418 22.744c-4.047 9.069-16.186 15.627-29.302 15.627-30.836 0-35.301-35.022-35.301-58.742Z"/><path fill="#B5966D" d="m18.182 151.361.145.561q-1.215.335-2.133.86-.894.541-1.451 1.181-.539.634-.718 1.3-.174.685.03 1.315.164.474.5.82.343.366.805.557.482.186 1.064.2.587.035 1.236-.174.957-.288 1.526-.889a5.9 5.9 0 0 0 .988-1.371q.402-.765.701-1.606.3-.841.687-1.582.406-.745.955-1.341.573-.582 1.497-.841.847-.24 1.561-.114.735.121 1.31.509.599.404 1.001 1.002.427.612.612 1.329.136.523.148.974.014.452-.033.834-.045.384-.13.695-.08.33-.136.593l.674-.029.115.445q-.015.024-.402.124l-.949.245q-.556.165-1.21.354l-1.21.353q-.555.165-.944.265l-.387.1-.11-.509a12.3 12.3 0 0 0 1.938-.893q.845-.486 1.37-1.014.543-.533.748-1.102t.054-1.15a2 2 0 0 0-.384-.769 2.1 2.1 0 0 0-.615-.543 2.3 2.3 0 0 0-.817-.285 2.4 2.4 0 0 0-.892.065q-.775.2-1.27.762a5.6 5.6 0 0 0-.82 1.306 23 23 0 0 0-.647 1.654q-.309.886-.763 1.684a6.2 6.2 0 0 1-1.154 1.455q-.698.655-1.811.984-.978.293-1.871.193a3.9 3.9 0 0 1-1.586-.541 4.3 4.3 0 0 1-1.24-1.125 4.9 4.9 0 0 1-.764-1.6 5.6 5.6 0 0 1-.184-1.832 5.4 5.4 0 0 1 .357-1.497l-.751.049-.12-.464.42-.13q.427-.11 1.022-.284l1.278-.33q.698-.18 1.293-.354a25 25 0 0 0 1.021-.284zm10.921 6.267.324-.103 1.246 3.906-.324.103a1.8 1.8 0 0 0-.184-.382q-.13-.21-.313-.257-.303-.093-1.051.062-.723.168-1.682.453-.96.285-2.02.644a106 106 0 0 1-4.001 1.277q-1.054.315-1.963.626a27 27 0 0 0-1.576.587q-.662.294-.855.545-.12.144-.106.391.035.241.09.412l-.343.11-1.246-3.906.324-.104q.055.172.184.382.13.21.313.257.277.08.988-.063a19 19 0 0 0 1.63-.415 57 57 0 0 0 2.001-.638l2.04-.651 1.943-.62q1.054-.315 2-.638a21 21 0 0 0 1.666-.636q.7-.308.88-.533.12-.144.106-.391a1.8 1.8 0 0 0-.07-.418m1.4 4.973a.58.58 0 0 0 .027-.402q-.037-.245-.107-.41l.332-.14 1.285 3.062-8.86 7.882 11.692-1.133 1.331 3.172-.332.14a1.8 1.8 0 0 0-.218-.364q-.129-.207-.316-.236-.282-.055-1.051.181-.75.228-1.699.604l-1.992.836q-1.043.459-1.928.831-.96.402-1.963.802l-1.844.774q-.86.381-1.455.719-.596.336-.774.585-.109.153-.071.398.056.237.125.403l-.332.139-1.578-3.762.332-.139q.07.166.199.372a.62.62 0 0 0 .342.247q.265.062.934-.154.675-.197 1.55-.542a51 51 0 0 0 1.863-.782l1.955-.82 1.53-.642q.857-.337 1.66-.697a32 32 0 0 0 1.516-.679q.71-.32 1.16-.595l-13.58 1.339-.849-.317 10.386-9.26-5.277 2.258q-.96.403-1.981.81-1.014.426-1.91.823-.878.39-1.518.724-.615.344-.793.593-.108.154-.071.398.056.237.126.403l-.332.139-1.13-2.692.332-.139q.069.165.199.371a.6.6 0 0 0 .342.247q.265.063.952-.161.714-.212 1.606-.565a57 57 0 0 0 1.937-.813l3.854-1.617a57 57 0 0 0 1.937-.813 21 21 0 0 0 1.602-.781q.696-.357.856-.597m7.244 15.638q-.11-.19-.247-.226-.138-.036-.31.065l-7.324 4.233-.91-1.715q3.401-1.987 5.192-3.126 1.807-1.149 2.017-1.503a.58.58 0 0 0 .053-.425q-.025-.24-.244-.576l.311-.181 1.665 2.849.373.639q1.194 2.082 1.018 3.644-.166 1.58-1.858 2.568a5 5 0 0 1-1.671.629q-.825.135-1.608-.056a3.9 3.9 0 0 1-1.464-.72q-.68-.53-1.201-1.383l-.885-1.475.538-.268.605 1.036q.344.587.838.878.504.307 1.107.349.62.03 1.298-.157a5.5 5.5 0 0 0 1.376-.618q.777-.454 1.239-.933.472-.46.653-.984.18-.522.071-1.107-.11-.584-.52-1.248zm-8.791 2.357.91 1.715-2.85 1.665q-1.14.667-1.375 1.174-.073.113-.042.326.05.203.21.479l-.31.182-2.119-3.627.311-.181q.189.283.352.443t.296.151q.26.01.688-.17.438-.164 1.018-.479.597-.326 1.322-.75zm2.75 13.812q.39.481.734.9a19 19 0 0 0 1.152 1.284q.213.215.362.278.135.047.551-.068.428-.099.89-.249.492-.148.899-.306.42-.143.555-.196l.102.4q-.267.177-.657.424-.39.246-.825.501-.42.243-.84.514-.407.258-.694.476l-3.203-4.247-1.84-2.421.287-.217q.11.143.286.31.193.155.38.137.273-.005.894-.377.638-.385 1.43-.962a53 53 0 0 0 1.672-1.271l1.72-1.307.652-.496q.458-.323 1.016-.746.572-.436 1.166-.912.62-.472 1.138-.915t.867-.81q.376-.363.448-.567.05-.164-.062-.38a1.8 1.8 0 0 0-.207-.37l.287-.218 2.505 3.296-.287.218a1.7 1.7 0 0 0-.302-.298q-.177-.167-.364-.15-.185-.01-.647.24-.435.255-1.012.619-.565.38-1.199.835l-1.202.864q-.57.408-1.015.747l-.621.472q-.812.617-1.596 1.238-.768.609-1.445 1.174-.66.552-1.181 1.023-.506.46-.803.761a.6.6 0 0 0-.15.365q.014.216.159.407m6.955 8.138q.42.399.828.813l.8.755q.395.343.675.571.282.228.45.286.143.03.553-.123.412-.153.866-.376.468-.208.866-.403a11 11 0 0 0 .553-.265l.167.369a33 33 0 0 1-1.352 1.107q-.384.294-.768.617a10 10 0 0 0-.626.561l-4-4.089-2.176-2.208.256-.253q.126.129.323.271.198.144.382.102.282-.054.852-.503.57-.448 1.281-1.121.727-.689 1.51-1.488l1.539-1.516 1.524-1.502a56 56 0 0 0 1.496-1.474q.685-.702 1.141-1.264.457-.563.515-.845.045-.183-.096-.383a3 3 0 0 0-.266-.327l.257-.252 2.386 2.422 3.579 3.633-.556.547-.584.632q-.285.309-.584.604-.271.294-.471.52l-.367-.173q.072-.126.259-.479.2-.338.387-.718.215-.381.359-.747.144-.367.117-.508a2 2 0 0 0-.266-.412 6 6 0 0 0-.49-.612 86 86 0 0 0-.66-.726 30 30 0 0 0-.757-.798.6.6 0 0 0-.366-.229.52.52 0 0 0-.383.096q-.327.238-.868.687-.526.434-1.167 1.009-.64.576-1.353 1.249a99 99 0 0 0-2.863 2.821 70 70 0 0 0-1.283 1.348q-.585.632-1.041 1.166a19 19 0 0 0-.685.844.54.54 0 0 0-.117.395.8.8 0 0 0 .224.369m4.032-5.881.385-.379q.912.897 1.502 1.468.618.57.985.742.211.1.566-.052.368-.138.724-.376t.668-.462q.327-.238.455-.308l.238.299q-.456.42-1.04.968l-1.14 1.123-1.14 1.123-.983 1.025-.28-.257q.056-.113.285-.422.243-.324.486-.675t.387-.719q.158-.353.075-.579-.18-.354-.756-.967-.547-.612-1.417-1.552m14.107 9.381q.71-.023 1.23-.274.546-.26.927-.591.399-.323.646-.664.275-.35.397-.556.227-.308.403-.645.175-.338.224-.657.075-.327-.005-.583-.07-.273-.371-.474-.534-.314-1.01-.06a2.8 2.8 0 0 0-.83.741 5.9 5.9 0 0 0-1.026 1.903 11 11 0 0 0-.482 2.315 19 19 0 0 0-.087 2.594q.07 1.34.245 2.698.152 1.203.386 2.223.252 1.03.62 1.826.376.779.916 1.282t1.244.686q.255.08.505.088.251.009.487-.038.246-.065.468-.165.233-.12.495-.289l.2.211q-.342.308-.725.524-.373.198-.783.305-.394.116-.806.106-.404.017-.782-.089-1.26-.347-2.055-1.163a6.5 6.5 0 0 1-1.26-1.879 10.8 10.8 0 0 1-.675-2.324 33 33 0 0 1-.31-2.432q-.228-3.199.137-5.397.383-2.189 1.433-3.38.795-.879 1.802-1.052 1.017-.19 2.099.377.51.278.86.669.376.384.532.87.154.486.09 1.028a2.8 2.8 0 0 1-.388 1.094q-.314.534-.815.912a4.2 4.2 0 0 1-1.144.604 6.5 6.5 0 0 1-1.418.279 7 7 0 0 1-1.612-.021zm-.524.457a6.3 6.3 0 0 0-1.584.089q-.699.123-1.273.388-.556.276-.979.677a5.3 5.3 0 0 0-.74.864 4.7 4.7 0 0 0-.582 1.422 4 4 0 0 0-.055 1.592q.135.798.658 1.524.541.737 1.582 1.256.944.486 1.974.628a4.8 4.8 0 0 0 2.009-.14q.978-.283 1.854-1.021.902-.746 1.557-2.054.219-.452.346-.864t.124-.763a1.6 1.6 0 0 0-.133-.681 1.4 1.4 0 0 0-.382-.573q-.278-.279-.213-.427.075-.165.697.039.384.133.726.264.35.114.602.239.269.135.41.288a.5.5 0 0 1 .147.342q.057.219.053.541.013.333-.076.721a4.4 4.4 0 0 1-.271.815 5.5 5.5 0 0 1-.442.831 6 6 0 0 1-1.786 1.85 7.4 7.4 0 0 1-2.474 1.05 7.9 7.9 0 0 1-2.822.103 7.9 7.9 0 0 1-2.81-.981q-1.294-.762-2.059-1.63t-1.071-1.767a3.7 3.7 0 0 1-.15-1.759 4.1 4.1 0 0 1 .67-1.648q.495-.684 1.08-1.128a3.9 3.9 0 0 1 1.388-.622q.784-.189 1.793-.128 1.01.06 2.325.347zm1.603 3.033q-.048-.47.106-.89.165-.436.456-.775.31-.328.706-.49.407-.179.833-.113.578.084 1.01.293.445.192.814.432.396.233.755.491.37.24.779.412.479.212 1.048.269.598.05 1.138-.119.54-.17.983-.606.47-.442.703-1.233.14-.475.052-.759a.63.63 0 0 0-.295-.406 1 1 0 0 0-.482-.167 3 3 0 0 0-.538.008.8.8 0 0 1-.523-.215 1.2 1.2 0 0 1-.334-.498 1.35 1.35 0 0 1-.026-.665q.086-.344.437-.625.353-.326.65-.314.321.004.539.109.234.114.427.298.222.176.364.446.16.28.232.67t.083.885q.093.75-.209 1.617-.3.867-.958 1.548-.628.675-1.576 1.022-.947.348-2.112.08a3.7 3.7 0 0 1-1.022-.393 10 10 0 0 1-.752-.536 24 24 0 0 0-.673-.512 2.4 2.4 0 0 0-.717-.399q-.606-.193-1.018.074-.396.278-.472.999a.13.13 0 0 1-.078.093.3.3 0 0 1-.154.026l-.124-.027zm15.043 13.965a4 4 0 0 1-1.78-.939q-.746-.71-1.157-1.83-.407-1.138-.401-2.667.004-1.528.498-3.425.493-1.897 1.219-3.175.73-1.298 1.6-2.022.896-.738 1.877-.938a4.4 4.4 0 0 1 2.032.054q.794.206 1.416.595.641.394 1.086 1.068l.595-.858.407.106-1.194 4.112-.465-.121q.12-.857-.014-1.615a4.8 4.8 0 0 0-.394-1.343q-.26-.585-.68-.962a1.94 1.94 0 0 0-.888-.479 1.92 1.92 0 0 0-1.418.209q-.66.387-1.224 1.211-.566.825-1.043 2.023a26 26 0 0 0-.836 2.655q-.383 1.471-.56 2.789-.153 1.304-.071 2.337.106 1.02.488 1.698.381.678 1.073.878.64.166 1.226.133a2.56 2.56 0 0 0 1.164-.42q.57-.369 1.145-1.066t1.158-1.828l.58.152a12 12 0 0 1-.903 1.645 5.4 5.4 0 0 1-1.187 1.303 3.9 3.9 0 0 1-1.496.748q-.822.22-1.853-.028m10.308.96q.618.04 1.158.072a19 19 0 0 0 1.726.025q.302-.011.449-.078.127-.067.325-.451.218-.38.42-.823.226-.46.385-.867.18-.405.233-.54l.363.195a34 34 0 0 1-.326 1.717q-.106.472-.193.966-.085.474-.12.832l-5.294-.529-3.026-.291.034-.358q.18.018.422 0 .245-.036.36-.186.18-.204.329-.913.15-.729.264-1.702.113-.973.2-2.091l.286-2.966q.073-.555.14-1.252.07-.717.122-1.475.075-.777.1-1.458.024-.68-.007-1.186-.01-.522-.112-.714-.087-.148-.321-.211a1.8 1.8 0 0 0-.413-.1l.035-.359 4.12.397-.034.358a1.8 1.8 0 0 0-.424.019q-.242.018-.357.167-.133.128-.262.638-.108.492-.233 1.163-.104.673-.2 1.447-.09.755-.18 1.47-.087.695-.141 1.252l-.075.777q-.097 1.014-.173 2.012-.074.978-.118 1.857a40 40 0 0 0-.05 1.563q-.005.683.014 1.106.021.204.167.358a.74.74 0 0 0 .407.159m10.843.361q.579-.046 1.158-.07.6-.046 1.098-.088.518-.063.875-.118.358-.056.514-.143.117-.085.28-.492.162-.408.3-.894.16-.488.281-.913.14-.447.175-.589l.386.124a33 33 0 0 1-.085 1.745q-.039.482-.057.984-.02.48-.003.84l-5.716.229-3.097.135-.016-.36q.18-.007.418-.058.239-.05.331-.215.15-.246.198-.969a19 19 0 0 0 .026-1.703 56 56 0 0 0-.092-2.118l-.187-4.296q-.029-1.12-.091-2.098a19 19 0 0 0-.174-1.694q-.111-.715-.281-.949-.107-.155-.349-.185a3 3 0 0 0-.421-.021l-.016-.36 3.397-.148 5.095-.221.034.779.078.857q.038.419.056.839.038.399.07.697l-.373.157a25 25 0 0 0-.183-.513q-.115-.375-.273-.769a6 6 0 0 0-.314-.767q-.175-.352-.299-.427a2 2 0 0 0-.484-.079 6 6 0 0 0-.782-.046q-.44-.001-.981.002-.54.004-1.1.028a.6.6 0 0 0-.415.118.53.53 0 0 0-.185.349q-.043.402-.072 1.104-.03.682-.033 1.543t.02 1.841a98 98 0 0 0 .174 4.016 70 70 0 0 0 .141 1.855q.078.858.168 1.555.09.677.167 1.073a.54.54 0 0 0 .215.351q.165.094.424.082m-1.663-6.934-.023-.54q1.278-.075 2.096-.131.837-.077 1.211-.233.217-.089.34-.455.145-.367.206-.79.063-.423.106-.805.042-.402.076-.544l.381.024q.007.62.022 1.42l.07 1.598.07 1.599q.053.778.1 1.417l-.378.036a4 4 0 0 1-.121-.495q-.078-.398-.176-.813a3.6 3.6 0 0 0-.274-.769q-.155-.354-.38-.444-.384-.103-1.224-.087-.822-.004-2.102.012m10.949-6.465.341-2.139.689-.413 4.806 9.772q.14.278.395.795.253.519.555 1.068.297.53.601.997t.55.659q.127.117.394.121.263-.015.458-.057l.075.352-4.283.914-.076-.352.235-.05q.153-.052.285-.102.13-.068.218-.128.11-.065.112-.147.028-.25-.159-.743a13 13 0 0 0-.444-1.03 21 21 0 0 0-.493-1.06l-.398-.815q-.295-.612-.758-1.536a97 97 0 0 0-.975-1.98 74 74 0 0 0-1.071-2.143 98 98 0 0 0-1.057-1.983m.952-2.535q-.092.531-.155 1.383t-.128 1.888q-.066 1.036-.129 2.175-.049 1.115-.09 2.166l-.081 1.92a49 49 0 0 0-.049 1.401q-.01.329-.051.91-.024.558-.036 1.174.004.592.034 1.117.05.522.179.739.067.129.354.129a3.4 3.4 0 0 0 .478-.061l.056.356-2.993.639-.075-.352q.195-.042.442-.135.26-.117.349-.279.126-.273.213-.823t.142-1.155q.07-.629.09-1.205.021-.578.036-.887l.397-10.883zm-.844 9.649-.126-.587 4.264-.91.126.587zm13.354 2.251-2.4.999-.139-.333q.185-.077.384-.224.198-.148.218-.308.019-.267-.118-.752a9 9 0 0 0-.33-1.054 33 33 0 0 0-.419-1.06l-.338-.813-.1-.24-.123-.295 1.385-.577zm-3.365-4.08a55 55 0 0 0-.596-1.485 88 88 0 0 0-.733-1.71 96 96 0 0 0-.763-1.784 35 35 0 0 0-.705-1.591q-.345-.723-.633-1.21-.279-.512-.448-.658a.54.54 0 0 0-.503-.116 2 2 0 0 0-.514.171l-.138-.333 3.01-1.252.813-.338q1.263-.504 2.201-.591.95-.113 1.643.097t1.162.708q.477.472.754 1.137.41.934.355 1.738a3.5 3.5 0 0 1-.444 1.484q-.378.655-1.069 1.181a7.4 7.4 0 0 1-1.533.897l-1.1.48 1.022 2.456zm-1.435-9.649a.43.43 0 0 0-.25.234.38.38 0 0 0 .015.297l2.271 5.51.842-.372q.85-.353 1.217-.874.36-.54.408-1.101a3.2 3.2 0 0 0-.09-1.154 8 8 0 0 0-.348-1.047 5.3 5.3 0 0 0-.477-.885 2.5 2.5 0 0 0-.745-.751 2.24 2.24 0 0 0-1.052-.342q-.588-.059-1.385.316zm3.748 14.167-1.907-4.687 1.367-.569.123.296q.072.121.118.232l.338.813q.207.498.456 1.044.242.528.497.985.266.432.468.607.129.099.373.062t.429-.114l.138.332zm-1.677-7.729 2.333-1.057q.864-.316 1.563-.043.698.272 1.275.877.569.587 1.044 1.364.467.758.877 1.433.421.648.78 1.04.358.393.709.247a.39.39 0 0 0 .271-.286q.078-.228.135-.403l.331.274a2 2 0 0 1-.236.683 2.7 2.7 0 0 1-.504.664 2.1 2.1 0 0 1-.695.463q-.406.17-.876.082-.487-.078-.873-.589a16 16 0 0 1-.812-1.222q-.407-.72-.866-1.459a6 6 0 0 0-1.092-1.323 3.5 3.5 0 0 0-1.422-.816q-.8-.252-1.942.071m9.838-12.719q-.18.126-.204.265-.025.14.09.303l4.817 6.955-1.636 1.047q-2.259-3.228-3.539-4.92-1.293-1.707-1.663-1.888a.58.58 0 0 0-.428-.018q-.238.044-.553.29l-.207-.295 2.704-1.892.606-.424q1.978-1.359 3.55-1.311 1.587.036 2.711 1.642.55.786.763 1.614a3.85 3.85 0 0 1-.523 3.124q-.473.722-1.28 1.311l-1.398 1.002-.311-.514.983-.688q.557-.39.806-.906.266-.528.258-1.132a4.1 4.1 0 0 0-.262-1.282 5.4 5.4 0 0 0-.729-1.32q-.516-.738-1.03-1.159-.498-.433-1.034-.57a2.1 2.1 0 0 0-1.109.019q-.574.157-1.201.621zm3.067 8.57 1.636-1.047 1.892 2.704q.756 1.082 1.282 1.275.118.065.328.015.199-.066.46-.249l.207.295-3.442 2.408-.206-.295q.267-.212.413-.387t.126-.308q-.011-.261-.226-.672a8 8 0 0 0-.56-.975 53 53 0 0 0-.855-1.257zm13.424-3.078-1.885 1.79-.248-.261a1.8 1.8 0 0 0 .278-.346q.132-.208.094-.366-.078-.256-.379-.66a9 9 0 0 0-.685-.866q-.399-.45-.771-.841l-.606-.638-.179-.188-.22-.232 1.087-1.033zm-4.601-2.608a57 57 0 0 0-1.088-1.174q-.62-.652-1.295-1.335-.675-.71-1.351-1.393-.661-.696-1.227-1.234a15 15 0 0 0-1.024-.903q-.443-.38-.653-.456a.55.55 0 0 0-.511.072 2 2 0 0 0-.419.343l-.248-.261 2.364-2.245.638-.606q.999-.922 1.845-1.339.846-.446 1.569-.497.723-.053 1.337.246.616.27 1.112.793.717.726.952 1.495.234.771.115 1.545-.117.747-.575 1.485a7.4 7.4 0 0 1-1.111 1.386l-.856.841 1.831 1.929zm-4.79-8.498a.43.43 0 0 0-.149.307.38.38 0 0 0 .12.272l4.09 4.335.654-.648q.666-.634.824-1.252a2.3 2.3 0 0 0-.012-1.175 3.2 3.2 0 0 0-.497-1.045 8 8 0 0 0-.699-.853 5.3 5.3 0 0 0-.762-.656 2.5 2.5 0 0 0-.965-.435 2.24 2.24 0 0 0-1.104.056q-.57.156-1.181.79zm8.564 11.891-3.455-3.696 1.073-1.02.22.232q.111.088.194.175l.606.638q.372.392.799.813.414.407.816.742.402.308.654.399.155.046.37-.075.216-.122.361-.26l.248.261zm-4.328-6.619 1.801-1.821q.694-.605 1.444-.599.75.004 1.505.364a7.7 7.7 0 0 1 1.462.9q.707.542 1.332 1.025a8 8 0 0 0 1.099.693q.475.238.751-.023a.39.39 0 0 0 .151-.364l-.018-.425.407.138q.076.313.024.722a2.8 2.8 0 0 1-.233.8q-.165.378-.484.681a1.5 1.5 0 0 1-.788.39q-.484.101-1.027-.239a16 16 0 0 1-1.195-.851q-.637-.525-1.331-1.053a6 6 0 0 0-1.492-.844 3.5 3.5 0 0 0-1.62-.254q-.835.049-1.788.76m10.48-11.471a21 21 0 0 0-2.339-1.585q-1.126-.67-2.077-.976-.94-.324-1.697-.227a1.77 1.77 0 0 0-1.223.697q-.465.601-.369 1.358.093.73.631 1.602.535.845 1.464 1.768.927.894 2.112 1.813 1.202.93 2.347 1.641 1.157.693 2.156 1.038 1.011.327 1.788.272.789-.072 1.255-.673.465-.6.353-1.371-.128-.781-.722-1.647-.582-.882-1.544-1.828a21 21 0 0 0-2.135-1.882m-7.747-2.409a4.4 4.4 0 0 1 1.548-1.28q.912-.458 2.043-.417 1.13.042 2.503.624 1.383.566 2.948 1.778 1.55 1.2 2.475 2.423.921 1.194 1.307 2.329.37 1.122.203 2.155a4.1 4.1 0 0 1-.821 1.843 4.2 4.2 0 0 1-1.58 1.256q-.947.405-2.138.343-1.195-.091-2.581-.685-1.403-.606-2.952-1.806-1.55-1.2-2.44-2.371-.905-1.182-1.228-2.267-.34-1.098-.136-2.078a4.36 4.36 0 0 1 .849-1.847m19.347-1.121a4 4 0 0 1-1.38 1.465q-.885.529-2.073.625-1.207.087-2.677-.326-1.472-.414-3.167-1.396-1.696-.983-2.734-2.024-1.055-1.051-1.52-2.083-.473-1.06-.402-2.059.063-1.027.595-1.944.41-.71.952-1.205a3.5 3.5 0 0 1 1.32-.761l-.668-.803.211-.363 3.643 2.25-.241.415a5.2 5.2 0 0 0-1.56-.419 4.7 4.7 0 0 0-1.399.022 2.8 2.8 0 0 0-1.109.397q-.476.303-.699.728a1.92 1.92 0 0 0-.178 1.423q.197.738.84 1.503.642.766 1.67 1.546a26 26 0 0 0 2.335 1.515 24 24 0 0 0 2.537 1.286q1.215.495 2.233.693 1.011.17 1.767-.017.755-.186 1.133-.799.332-.57.456-1.146a2.54 2.54 0 0 0-.094-1.233q-.202-.649-.721-1.389t-1.451-1.604l.301-.519q.734.61 1.344 1.311.61.7.938 1.491.338.774.32 1.642-.007.85-.522 1.778m3.652-8.963q.219-.537.456-1.066.228-.556.414-1.02.176-.49.287-.836.11-.345.103-.523-.023-.143-.315-.471a9 9 0 0 0-.663-.67 23 23 0 0 0-.691-.66 11 11 0 0 0-.447-.42l.283-.29a31 31 0 0 1 1.522.859q.413.25.854.492.422.233.75.38l-2.36 5.211-1.269 2.828-.328-.147q.073-.165.135-.4t-.043-.392q-.153-.244-.778-.612a19 19 0 0 0-1.51-.787 55 55 0 0 0-1.934-.867l-3.923-1.761a57 57 0 0 0-1.916-.859 20 20 0 0 0-1.592-.605q-.69-.222-.975-.174-.186.026-.321.229-.135.202-.209.366l-.328-.147 1.392-3.102 2.087-4.653.712.319.801.316q.392.154.774.325.374.145.655.25l-.027.404a25 25 0 0 0-.54-.067 10 10 0 0 0-.81-.1 6 6 0 0 0-.826-.064q-.394-.002-.517.076-.111.103-.287.397a5.5 5.5 0 0 0-.392.679q-.2.393-.438.877-.24.484-.469.996a.6.6 0 0 0-.08.424q.043.195.228.322.34.218.955.559.596.333 1.364.722t1.654.808a106 106 0 0 0 3.668 1.645q.92.391 1.721.707.8.315 1.465.547.645.224 1.034.333a.54.54 0 0 0 .41-.035.8.8 0 0 0 .264-.343m-6.944-1.624-.493-.221q.506-1.176.824-1.933.306-.782.335-1.186.016-.233-.254-.509a3.6 3.6 0 0 0-.614-.538 26 26 0 0 0-.672-.455 5 5 0 0 1-.452-.313l.192-.33q.558.272 1.279.618l2.92 1.31q.72.3 1.312.544l-.138.355a4 4 0 0 1-.497-.113 20 20 0 0 0-.805-.208 3.6 3.6 0 0 0-.81-.1q-.386-.02-.567.14-.266.297-.627 1.056-.372.732-.933 1.883m4.859-6.373.19-.548a9.2 9.2 0 0 0 2.252.464q1.043.045 1.862-.179.8-.231 1.318-.686.524-.475.703-1.111.126-.486.037-.961a2.3 2.3 0 0 0-.362-.909 3.2 3.2 0 0 0-.775-.756 3.4 3.4 0 0 0-1.125-.539q-.959-.29-1.764-.104a6 6 0 0 0-1.582.594q-.758.414-1.473.95-.715.534-1.447.937a6.8 6.8 0 0 1-1.538.588q-.8.166-1.713-.129-.837-.27-1.363-.769a3.3 3.3 0 0 1-.808-1.149 3.7 3.7 0 0 1-.28-1.389q-.016-.746.227-1.445.177-.51.416-.893.238-.383.489-.677.25-.294.493-.506.25-.231.442-.419l-.578-.348.151-.435q.025-.013.403.119l.926.321q.555.172 1.204.376l1.203.375q.555.171.932.303l.378.131-.189.484a12.4 12.4 0 0 0-2.109-.329q-.973-.063-1.702.086-.748.143-1.233.504-.486.36-.682.927a2 2 0 0 0-.106.853q.026.41.212.793.184.382.522.69.326.282.779.439.756.262 1.48.069a5.5 5.5 0 0 0 1.405-.634q.708-.453 1.455-1.019a10 10 0 0 1 1.568-.98 6.2 6.2 0 0 1 1.765-.573q.945-.16 2.054.184.976.297 1.665.874.67.571 1.021 1.329a4.3 4.3 0 0 1 .41 1.624 4.9 4.9 0 0 1-.249 1.755 5.6 5.6 0 0 1-.862 1.628 5.4 5.4 0 0 1-1.126 1.048l.653.375-.157.454-.423-.126a35 35 0 0 0-1.007-.328l-1.247-.433a41 41 0 0 0-1.273-.421q-.605-.21-1.008-.329zm3.157-9.231.148-.561q1.224.303 2.281.294 1.044-.034 1.843-.319.78-.291 1.263-.783a2.33 2.33 0 0 0 .617-1.161q.09-.493-.035-.961a2.3 2.3 0 0 0-.429-.879 3.2 3.2 0 0 0-.83-.695 3.4 3.4 0 0 0-1.163-.453q-.977-.217-1.766.029a6 6 0 0 0-1.533.711q-.725.47-1.397 1.058-.673.587-1.373 1.043a6.8 6.8 0 0 1-1.489.703q-.785.227-1.718 0-.856-.205-1.417-.664a3.3 3.3 0 0 1-.892-1.085 3.7 3.7 0 0 1-.384-1.363 4.1 4.1 0 0 1 .117-1.459q.138-.522.348-.922t.436-.712a5 5 0 0 1 .454-.542q.231-.249.409-.45l-.602-.304.118-.445q.024-.014.411.088l.947.251 1.228.284 1.229.283a30 30 0 0 1 1.339.334l-.153.498a12.3 12.3 0 0 0-2.127-.17q-.975.01-1.691.214-.736.198-1.192.595-.457.397-.61.976-.113.426-.041.858.057.409.271.776.213.366.573.648.345.257.81.38a2.47 2.47 0 0 0 1.48-.043 5.6 5.6 0 0 0 1.354-.738q.67-.505 1.374-1.126.702-.621 1.489-1.095a6.2 6.2 0 0 1 1.718-.704q.93-.23 2.061.028.996.222 1.727.747.71.52 1.118 1.247.411.71.531 1.589.104.855-.117 1.769a5.6 5.6 0 0 1-.736 1.688q-.495.696-1.044 1.13l.679.325-.123.464-.43-.093a35 35 0 0 0-1.03-.252l-1.276-.338q-.696-.184-1.3-.323a24 24 0 0 0-1.03-.252zM51.233 28.369q-1.08-1.764-1.482-3.273-.416-1.527-.291-2.74.13-1.244.716-2.145a4.5 4.5 0 0 1 1.474-1.47 6.2 6.2 0 0 1 1.562-.684 3.4 3.4 0 0 1 1.649-.093l-.223-1.051.504-.308 2.513 4.472-.547.36q-.672-.9-1.325-1.44-.664-.56-1.263-.81-.58-.264-1.091-.248a1.87 1.87 0 0 0-.928.22q-.663.333-.892 1.09-.21.748-.064 1.796.165 1.037.67 2.31.515 1.244 1.34 2.594a33 33 0 0 0 1.66 2.472q.825 1.104 1.604 1.813.78.71 1.52.95.73.222 1.407-.167.503-.309.71-.78.213-.502.204-1.041 0-.568-.18-1.102a4.8 4.8 0 0 0-.43-.948l-.364-.594a23 23 0 0 0-.524-.817 7 7 0 0 0-.608-.791q-.324-.37-.583-.509-.098-.039-.3.035-.195.045-.404.148-.22.085-.4.195-.19.092-.281.148l-.334-.587 4.445-2.72.353.576a2 2 0 0 0-.345.286.47.47 0 0 0-.178.356q-.005.275.132.66.144.359.538 1.082l1.601 2.78q.067.553-.11 1.155a4.7 4.7 0 0 1-.572 1.166 5.7 5.7 0 0 1-.903 1.072q-.524.518-1.154.904-1.116.681-2.226.767-1.121.068-2.218-.473-1.11-.559-2.2-1.696-1.104-1.155-2.182-2.92m17.446-8.845a27 27 0 0 0-1.201-2.702q-.605-1.214-1.23-2.014-.612-.825-1.263-1.163-.637-.364-1.287-.114-.63.243-.885.93-.236.678-.155 1.71.075 1.012.442 2.317.36 1.286.93 2.762.585 1.516 1.204 2.77.62 1.253 1.275 2.131.647.858 1.301 1.262.666.376 1.315.126.63-.243.85-.962.24-.725.124-1.789-.096-1.07-.48-2.415a29 29 0 0 0-.94-2.849m-5.209-6.583a4.64 4.64 0 0 1 2.096-.312q1.073.084 2.072.739.998.655 1.92 1.928.939 1.265 1.692 3.214.744 1.929.912 3.537.18 1.582-.089 2.816-.278 1.215-.993 2.057a4.3 4.3 0 0 1-1.747 1.217 4.4 4.4 0 0 1-2.111.272q-1.076-.15-2.117-.857-1.03-.733-1.958-2.026-.936-1.313-1.68-3.241-.744-1.93-.91-3.471-.173-1.561.128-2.718.293-1.176 1.01-1.95a4.6 4.6 0 0 1 1.775-1.205m16.726 3.791a27 27 0 0 0-.708-2.871q-.382-1.301-.856-2.198-.458-.922-1.04-1.368-.563-.47-1.247-.338-.663.129-1.034.76-.352.626-.453 1.656-.105 1.01.028 2.359.13 1.33.43 2.882.31 1.595.699 2.938.39 1.343.88 2.322.487.96 1.06 1.471.588.488 1.272.355.662-.128 1.006-.797.364-.672.436-1.74.093-1.07-.048-2.461-.12-1.395-.425-2.97m-3.971-7.396a4.64 4.64 0 0 1 2.118.061q1.04.271 1.91 1.092.867.819 1.55 2.235.705 1.41 1.102 3.461.394 2.03.277 3.643-.1 1.589-.583 2.757-.486 1.147-1.34 1.85a4.3 4.3 0 0 1-1.933.89 4.4 4.4 0 0 1-2.126-.103q-1.032-.337-1.933-1.215-.885-.903-1.572-2.339-.69-1.456-1.084-3.486t-.286-3.577q.104-1.568.603-2.653.495-1.106 1.339-1.742a4.6 4.6 0 0 1 1.958-.874m15.624 6.502a27 27 0 0 0-.255-2.946q-.176-1.345-.506-2.304-.31-.981-.815-1.512-.485-.552-1.18-.527-.675.026-1.14.59-.444.566-.703 1.568-.26.98-.337 2.334a31 31 0 0 0-.02 2.915q.058 1.623.236 3.01.177 1.388.51 2.43.333 1.023.82 1.618.506.572 1.202.547.675-.025 1.117-.632.463-.608.7-1.651.257-1.045.333-2.44.096-1.397.038-3m-2.78-7.921a4.64 4.64 0 0 1 2.084.388q.986.43 1.718 1.373.73.945 1.187 2.448.477 1.503.553 3.59.075 2.067-.29 3.643-.344 1.553-1.002 2.633-.657 1.059-1.609 1.62-.93.541-2.047.582a4.4 4.4 0 0 1-2.085-.43q-.968-.494-1.723-1.5-.734-1.029-1.19-2.553-.459-1.546-.533-3.612-.075-2.067.27-3.578.346-1.533 1.006-2.528.66-1.017 1.592-1.515a4.6 4.6 0 0 1 2.07-.561m6.5.104 4.908.539q1.974.196 3.128 1.087 1.176.892 1.762 2.125.587 1.23.686 2.643.12 1.414-.015 2.652a14 14 0 0 1-.566 2.633 7.7 7.7 0 0 1-1.248 2.474q-.842 1.096-2.186 1.734-1.322.64-3.294.423l-4.886-.537.048-.44q.21.023.573 0 .364-.025.464-.162.154-.238.274-.755a9 9 0 0 0 .23-1.121q.108-.604.17-1.17l.1-.902.172-1.573a95 95 0 0 0 .245-2.032q.117-1.07.216-2.162a77 77 0 0 0 .16-2.042q.063-.948.052-1.628.011-.678-.071-.9a.52.52 0 0 0-.408-.342 4 4 0 0 0-.562-.104zm4.806 1.08-.901-.1-1.2 10.524-.455 4.153.943.103q.923.102 1.571-.188a3.05 3.05 0 0 0 1.131-.83q.486-.564.779-1.295.316-.75.51-1.557.195-.806.306-1.622.113-.836.189-1.529a58 58 0 0 0 .143-1.491q.09-.818.072-1.626a9 9 0 0 0-.165-1.59 4.3 4.3 0 0 0-.505-1.392 2.85 2.85 0 0 0-.926-1.036q-.568-.423-1.492-.524m11.548 18.284a4.2 4.2 0 0 1-1.824-1.087q-.766-.796-1.138-1.998-.366-1.222-.297-2.838.09-1.61.714-3.58.624-1.972 1.458-3.28.861-1.32 1.818-2.035.983-.729 2.049-.879a4.6 4.6 0 0 1 2.137.168q.825.262 1.465.686.667.41 1.099 1.144l.594-.83.483.153-1.59 4.742-.543-.172a4.6 4.6 0 0 0 .214-1.725 5 5 0 0 0-.297-1.577 3.6 3.6 0 0 0-.699-1.217q-.421-.487-.917-.6-.697-.176-1.351.214-.629.376-1.203 1.212-.555.843-1.076 2.072a30 30 0 0 0-.994 2.717 28 28 0 0 0-.757 2.881q-.24 1.318-.258 2.353.002 1.04.293 1.73t.881.921 1.185.242a2.7 2.7 0 0 0 1.21-.325q.635-.33 1.272-1.013.664-.697 1.34-1.855l.664.21a12.4 12.4 0 0 1-1.042 1.684 5.7 5.7 0 0 1-1.322 1.307 4.1 4.1 0 0 1-1.617.706q-.879.186-1.951-.131m14.443-2.62q.726-1.43 1.205-2.7.498-1.262.674-2.261.204-1.009.02-1.717-.156-.718-.777-1.033-.602-.306-1.283-.036-.663.279-1.375 1.03-.702.73-1.426 1.878a31 31 0 0 0-1.431 2.54q-.735 1.447-1.252 2.747-.518 1.299-.731 2.373-.205 1.056-.068 1.812.165.746.786 1.061.603.306 1.284-.011.7-.307 1.412-1.105.732-.788 1.475-1.973a29 29 0 0 0 1.487-2.605m1.408-8.276a4.64 4.64 0 0 1 1.634 1.35q.655.853.837 2.034t-.148 2.716q-.311 1.546-1.257 3.408-.935 1.845-2.018 3.046-1.055 1.191-2.153 1.817-1.089.607-2.193.638a4.3 4.3 0 0 1-2.073-.484 4.4 4.4 0 0 1-1.615-1.387q-.608-.9-.779-2.147-.144-1.256.196-2.81.349-1.575 1.285-3.418.934-1.845 1.971-2.998 1.044-1.174 2.105-1.724 1.07-.57 2.126-.553a4.6 4.6 0 0 1 2.082.512M128 32.021q.488.333.575.878.105.558-.228 1.045-.357.523-.914.628-.528.099-1.016-.234t-.575-.878.257-1.05q.333-.489.873-.605.557-.105 1.028.216"/></svg>