<svg xmlns="http://www.w3.org/2000/svg" width="69" height="22" fill="none"><path fill="#B5966D" d="M48.337 1.661s-1.294.516-2.798 2.173c-1.51 1.664-2.381 3.523-1.732 4.016.248.188.822.22 1.865-.717.815-.73 1.644-1.688 2.206-3.058.673-1.642.459-2.395.459-2.414m8.232 2.984c-1.671-.857-2.892-1.904-4.164-2.557-1.212-.623-1.997-.883-2.977-.752a3 3 0 0 0-.404.1c0 .001.505 1.725-1.504 4.624-2.036 2.934-3.88 2.918-4.407 2.108-.55-.851.16-2.587 1.345-4.132 1.24-1.615 3.422-2.955 3.422-2.955s-.696-.424-2.404.544c-1.663.94-4.535 3.183-7.191 6.967-2.654 3.784-3.188 5.866-3.57 7.505-.384 1.64-.034 3.394 1.783 3.394 1.82.002 3.933-2.771 4.53-3.735 1.11-1.795 1.833-4.548.323-4.17-.744.186-1.346 1.01-1.726 1.803-.39.814-.548 1.593-.548 1.593s-.629.224-1.473.857c-.845.63-1.397 1.234-1.397 1.234s.006-1.31 1.05-3.43c1.046-2.12 2.962-3.088 4.047-3.179.979-.079 2.252.752 1.173 3.818-1.077 3.066-4.261 6.786-7.606 6.832-3.087.043-5.106-3.897-.81-10.767 4.751-7.6 10.33-9.93 12.141-10.19 1.811-.258 2.4.54 2.4.54s1.517-.7 3.442-.568c2.21.15 3.92 1.714 6.177 2.814a38 38 0 0 0-1.652 1.702m9.933-2.557c-1.532.982-3.653 1.874-5.69 1.677A31 31 0 0 0 59.19 5.59c3.533.699 6.627-1.49 8.273-3.354C68.493 1.073 69 .035 69 .035s-.982 1.079-2.498 2.053m-4.704 9.953c.045-.08.065-.148.065-.148s-.04-.297-.324-.31c-.335-.015-.796.05-1.999 1.381-1.198 1.326-1.926 2.478-2.559 3.63-.689 1.26-.968 2.198-.572 2.44.112.069.28.077.417.043.269-.065.572-.316 1.035-.851.216-.251.457-.607.744-1 .796-1.084 2.797-4.496 3.193-5.185M49.295 13.49c.2-.526.456-1.557-.075-1.96-.572-.431-2.027.577-2.036 1.612-.01 1.06 1.025 1.538 1.274 1.605.141.038.19.032.259-.08.042-.076.376-.65.578-1.177m-1.102 1.926a4.4 4.4 0 0 1-1-.639 3.2 3.2 0 0 1-.755-.911c-.02-.035-.04-.008-.062.022s-.11.107-.89 1.25c-.778 1.141-1.968 3.494-.889 3.896.691.257 1.841-.954 2.472-1.756a15 15 0 0 0 1.158-1.763c.033-.069.004-.085-.034-.099m12.24 2.723c-.292.469-.626 1.368.342.808 1.179-.68 2.858-3.228 2.858-3.228h.76s-1.002 1.583-2.308 3.028c-1.194 1.324-2.652 2.527-3.678 2.407-1.2-.139-.823-1.714-.823-1.714s-1.722 1.828-2.905 1.696c-1.603-.178-1.114-2.158-1.114-2.158s-1.812 2.229-3.047 2.156c-1.937-.11-1.45-2.474-.912-4.127.289-.888.556-1.585.556-1.585s-.192.05-.605.111c-.216.03-.608.053-.608.053s-.806 1.423-1.451 2.278c-.645.857-3.388 3.802-5 3.212-1.493-.546-1-2.83-.13-4.645 1.267-2.646 4.833-6.448 6.888-5.949 2.133.518.049 4.407.049 4.407s0 .014.022.024c.042.016.154.028.41-.023.41-.078.78-.232.78-.232s2.143-4.487 4.51-7.422S62.115-.752 63.969.471c.453.301.247 1.336-.364 2.593q-.406.13-.837.218c.409-.741.68-1.366.76-1.803.28-1.516-3.262 1.68-5.793 5.12-2.53 3.44-4.05 6.555-4.05 6.555s.51-.289 1.305-.93c.831-.669 1.975-1.718 3.214-3a35 35 0 0 0 2.735-3.156q.413-.02.805-.083c-1.025 1.378-2.102 2.638-3.018 3.565-1.007 1.021-2.102 2.119-3.052 2.92-1.512 1.268-2.676 1.988-2.676 1.988s-2.214 4.463-1.009 4.75c.707.17 2.106-1.983 2.106-1.983s1.823-2.783 2.923-4.034c1.5-1.706 2.791-2.69 4.08-2.71.753-.015 1.195.787 1.195.787l.354-.547 2.177.002s-4.065 6.896-4.39 7.416m6.069-16.051c-1.532.982-3.653 1.874-5.69 1.677A31 31 0 0 0 59.19 5.59c3.533.699 6.627-1.49 8.273-3.354C68.493 1.073 69 .035 69 .035s-.982 1.079-2.498 2.053M35.938 5.47l-2.07-.002-1.17 1.892 2.07.002zm-9.801 6.545c.881-1.206 3.31-5.437 3.31-5.437s-.04-.297-.323-.31c-.335-.015-.893.098-2.01 1.493-1.119 1.392-1.98 2.504-2.61 3.658-.692 1.26-.993 2.149-.597 2.39a.6.6 0 0 0 .417.042c.258-.065.596-.324 1.059-.857.218-.249.465-.585.754-.979M15.03 6.296c-.572-.432-2.027.578-2.035 1.611-.008 1.06 1.313 1.362 1.485 1.37 0 0 .15.04.208-.084.037-.08.217-.41.419-.936.2-.526.455-1.557-.077-1.96m-.863 3.648c-.038-.014-.586-.171-1.122-.515-.536-.342-.782-.85-.8-.887-.02-.035-.043-.008-.063.022-.022.03-.137.176-.916 1.318-.778 1.14-1.932 3.478-.85 3.879.69.256 1.853-.958 2.482-1.76a21 21 0 0 0 1.307-1.96c.027-.068-.002-.084-.038-.097m16.912.704h.758s-3.8 5.492-5.949 5.241c-1.198-.14-.843-1.619-.843-1.619s-1.687 1.97-3.228 1.577c-1.402-.36-.497-2.69-.497-2.69-.16.064-3.193 3.484-5.326 2.663-2.231-.86-1.073-3.725-.649-4.586.36-.726.758-1.433.758-1.433s-.341.097-.556.146c-.212.048-.535.11-.535.11s-1.055 1.717-1.7 2.572c-.645.857-3.388 3.798-5.003 3.212-1.615-.589-1.215-2.846-.307-4.641 1.471-2.91 4.964-6.489 7.066-5.95 2.125.54.366 3.987.366 3.987s.423.055 1.435-.637c1.462-.994 3.384-3.67 5.468-3.357.978.148 1.89 1.152.643 3.058-.4.613-1.07 1.16-1.583.619-.32-.334-.04-.95.295-1.37.473-.597 1.126-.514 1.126-.514s.344-.79-.532-.774c-.71.014-2.504 1.665-3.517 3.335-.93 1.532-2.336 4.143-.923 4.713 1.295.524 3.761-2.403 4.903-3.937 1.142-1.532 3.742-5.01 5.925-5.15.752-.049 1.198.636 1.198.636l.253-.4 2.179.002s-4.112 6.86-4.433 7.38c-.252.406-.588 1.32.342.809.933-.514 2.866-3.002 2.866-3.002M29.89 21.644c-1.649-1.163-3.66-1.674-5.485-1.601-1.848.073-2.677 1.451-2.677 1.451-.832-1.453-2.478-2.345-5.022-2.324-4.112.046-8.193 1.942-11.42 1.94-3.101-.002-5.359-1.948-5.284-5.407C.135 9.64 5.262 4.178 9.092 1.72c2.2-1.413 4.044-1.831 5.25-1.696.88.097 1.937 1.114 1.27 2.612-.98 2.193-2.335 2.009-2.284.962.028-.681.481-1.11.823-1.344.216-.15.598-.192.798-.197.194-.163.342-1.362-1.235-.968s-3.476 1.943-5.288 3.94c-1.81 1.995-4.628 5.78-5.326 9.75-.325 1.842-.109 5.2 4.253 5.163 3.697-.03 9.159-2.464 14.173-2.418 1.947.018 3.64.544 4.96 1.359 1.298.798 2.853 1.964 3.404 2.76"/></svg>