<svg xmlns="http://www.w3.org/2000/svg" width="79" height="15" fill="none"><path fill="#B5966D" d="M7.126 0C3.99.025 1.32 2.09.37 4.937h5.162zM.332 5.047A7.3 7.3 0 0 0 0 7.225a7.23 7.23 0 0 0 2.916 5.805l1.593-4.932z"/><path fill="#B5966D" d="M8.013 7.234H9.4V5.837H4.967v1.397h1.388v3.421L3.01 13.1a7.13 7.13 0 0 0 4.174 1.349c1.553 0 2.997-.5 4.174-1.348l-3.345-2.445z"/><path fill="#B5966D" d="m9.86 8.098 1.593 4.931a7.23 7.23 0 0 0 2.583-7.983zM14 4.937C13.05 2.09 10.381.025 7.242 0l1.594 4.937zm64.848 5.641a1.11 1.11 0 0 0-.98-.569q-.304 0-.564.15-.266.153-.418.42a1.14 1.14 0 0 0 .982 1.706q.301 0 .567-.153.262-.153.413-.418a1.1 1.1 0 0 0 .152-.57c0-.206-.052-.39-.152-.567zm-.135 1.06a.96.96 0 0 1-.357.361.97.97 0 0 1-1.332-.36.98.98 0 0 1 0-.984.98.98 0 0 1 .846-.495q.259.001.485.133a1 1 0 0 1 .358.362.98.98 0 0 1 0 .983"/><path fill="#B5966D" d="M78.39 11.585v-.148a.4.4 0 0 0-.032-.197.24.24 0 0 0-.117-.102.4.4 0 0 0 .126-.117.36.36 0 0 0 .038-.173.37.37 0 0 0-.054-.202.3.3 0 0 0-.134-.126.7.7 0 0 0-.275-.039h-.546v1.313h.208v-.547h.327q.123 0 .164.016a.13.13 0 0 1 .064.051.3.3 0 0 1 .028.126l.009.16q.007.114.034.194h.225l-.017-.035a.3.3 0 0 1-.048-.173zm-.269-.558q-.052.032-.2.032h-.318v-.388h.332q.154 0 .206.046.056.046.055.147 0 .114-.075.163m-1.857-6.385q-.569-1.152-1.72-1.855-1.146-.699-2.81-.7-1.25.02-2.21.424-.962.405-1.595 1.105a4.7 4.7 0 0 0-.95 1.603 6.1 6.1 0 0 0-.336 1.933q0 1.338.515 2.533.514 1.192 1.666 1.95 1.15.76 2.94.772 1.22 0 2.181-.414a4.5 4.5 0 0 0 1.606-1.143 5 5 0 0 0 .977-1.689q.33-.962.33-2.035a5.8 5.8 0 0 0-.594-2.484m-3.065 4.609q-.451.744-1.436.764-.898-.001-1.404-.716-.506-.716-.53-2.067 0-.89.238-1.514.239-.624.669-.93.434-.31.998-.31 1 .01 1.468.808.468.796.468 2.068-.022 1.156-.472 1.897m-11.664.764q-1.889-.04-1.888-2.7-.001-1.213.424-2.025.427-.812 1.398-.812.324.001.676.116.355.117.662.473.307.359.379 1.025h3.023q-.222-1.661-1.255-2.806-1.032-1.148-3.619-1.2-.87 0-1.728.302a4.7 4.7 0 0 0-1.577.933c-.48.42-.86.968-1.151 1.635q-.434 1.007-.435 2.358.01 1.176.377 2.119.362.943 1.04 1.606.677.666 1.641 1.018.963.35 2.143.35 1.33 0 2.333-.524a4.04 4.04 0 0 0 1.583-1.447 4.9 4.9 0 0 0 .708-2.09h-3.07q-.24 1.67-1.664 1.669M50.12 2.344l-3.095 8.695-2.609-3.997 3.31-4.698H44.13l-1.4 2.497-1.363-2.497H37.77l3.12 4.698-3.456 5.094h3.578L42.58 9.38l1.582 2.756h5.578l.38-1.306h3.158l.39 1.306h3.177l-3.483-9.792zm.593 6.449.987-3.5 1.024 3.5zM32.192 8.32h3.997V6.037h-3.997V4.625h4.743V2.344h-7.942v9.792h8.131V9.855h-4.932zM19.296 4.924h2.877v7.212h3.186V4.924h2.85v-2.58h-8.913z"/></svg>