<svg width="38" height="38" viewBox="0 0 38 38" fill="none" xmlns="http://www.w3.org/2000/svg">
<path d="M13.0982 4.84997C11.582 4.9215 10.5466 5.16347 9.64148 5.51915C8.70468 5.88423 7.91067 6.37415 7.12065 7.16702C6.33063 7.95989 5.84414 8.75447 5.48162 9.69269C5.13078 10.5998 4.89309 11.6361 4.82612 13.1532C4.75914 14.6702 4.74432 15.1578 4.75173 19.0276C4.75914 22.8973 4.77624 23.3824 4.84977 24.9026C4.92216 26.4185 5.16327 27.4536 5.51895 28.359C5.88461 29.2958 6.37395 30.0896 7.16711 30.8799C7.96026 31.6702 8.75427 32.1555 9.69477 32.5186C10.6011 32.8689 11.6376 33.1077 13.1544 33.1741C14.6712 33.2405 15.1594 33.2559 19.028 33.2485C22.8965 33.2411 23.3836 33.224 24.9035 33.1519C26.4234 33.0798 27.4531 32.837 28.3589 32.483C29.2957 32.1165 30.0899 31.628 30.8797 30.8346C31.6694 30.0411 32.1556 29.246 32.5179 28.3072C32.869 27.4009 33.1075 26.3643 33.1734 24.8487C33.2398 23.3277 33.2554 22.842 33.248 18.9729C33.2406 15.1037 33.2232 14.6186 33.1511 13.099C33.079 11.5794 32.8376 10.5474 32.4822 9.64139C32.116 8.70459 31.6272 7.91144 30.8344 7.12056C30.0415 6.32969 29.2458 5.84376 28.3073 5.48238C27.4004 5.13155 26.3644 4.89243 24.8477 4.82688C23.3309 4.76133 22.8427 4.74452 18.9727 4.75193C15.1026 4.75934 14.6181 4.77587 13.0982 4.84997ZM13.2647 30.6105C11.8753 30.5501 11.1209 30.3193 10.6182 30.126C9.95241 29.8695 9.47817 29.5595 8.97714 29.0633C8.47611 28.5671 8.16831 28.0911 7.90839 27.4268C7.71317 26.9241 7.47804 26.1705 7.41306 24.7812C7.34238 23.2795 7.32756 22.8286 7.3193 19.0242C7.31103 15.2197 7.32557 14.7694 7.3914 13.2672C7.45068 11.8789 7.68296 11.1237 7.8759 10.6212C8.1324 9.9546 8.44134 9.48122 8.93867 8.98047C9.43599 8.47973 9.91052 8.17136 10.5754 7.91144C11.0776 7.71536 11.8311 7.48223 13.2199 7.41611C14.7227 7.34486 15.173 7.33061 18.9769 7.32234C22.7808 7.31408 23.2323 7.32833 24.7356 7.39445C26.1239 7.45487 26.8794 7.68486 27.3813 7.87895C28.0473 8.13545 28.5213 8.44353 29.0221 8.94171C29.5228 9.43989 29.8314 9.91271 30.0914 10.579C30.2877 11.0798 30.5209 11.833 30.5864 13.2227C30.658 14.7255 30.6742 15.1761 30.681 18.9797C30.6879 22.7833 30.6745 23.235 30.6086 24.7367C30.5479 26.1261 30.3177 26.8808 30.1241 27.3841C29.8676 28.0495 29.5584 28.5241 29.0608 29.0245C28.5632 29.525 28.0892 29.8333 27.4241 30.0933C26.9225 30.2891 26.1681 30.5228 24.7804 30.5889C23.2776 30.6596 22.8273 30.6744 19.022 30.6826C15.2166 30.6909 14.7678 30.6755 13.265 30.6105M24.8816 11.3842C24.8821 11.7224 24.983 12.0529 25.1714 12.3338C25.3598 12.6147 25.6272 12.8334 25.9399 12.9623C26.2527 13.0912 26.5966 13.1244 26.9282 13.0578C27.2598 12.9913 27.5642 12.8278 27.8029 12.5882C28.0417 12.3486 28.204 12.0436 28.2693 11.7118C28.3347 11.3799 28.3002 11.0361 28.1701 10.7239C28.0401 10.4117 27.8204 10.145 27.5388 9.95764C27.2572 9.77028 26.9264 9.67064 26.5881 9.67131C26.1347 9.67222 25.7002 9.85317 25.3802 10.1744C25.0602 10.4956 24.8808 10.9307 24.8816 11.3842ZM11.6832 19.0145C11.6912 23.0558 14.9733 26.3244 19.0137 26.3167C23.0542 26.309 26.3251 23.0273 26.3174 18.986C26.3097 14.9447 23.0268 11.6751 18.9858 11.6831C14.9448 11.6911 11.6755 14.9737 11.6832 19.0145ZM14.2499 19.0093C14.2481 18.0699 14.5248 17.1509 15.0452 16.3687C15.5656 15.5866 16.3063 14.9763 17.1736 14.615C18.0408 14.2538 18.9957 14.1578 19.9175 14.3393C20.8393 14.5208 21.6866 14.9715 22.3522 15.6345C23.0178 16.2975 23.4719 17.143 23.657 18.064C23.8421 18.9851 23.7499 19.9404 23.3921 20.809C23.0343 21.6777 22.427 22.4208 21.6468 22.9443C20.8667 23.4678 19.9489 23.7482 19.0094 23.75C18.3856 23.7513 17.7677 23.6297 17.1908 23.3922C16.614 23.1547 16.0897 22.8058 15.6477 22.3656C15.2057 21.9253 14.8548 21.4024 14.615 20.8265C14.3751 20.2506 14.2511 19.6332 14.2499 19.0093Z" fill="#F9F2E2"/>
</svg>
