<svg width="38" height="38" viewBox="0 0 38 38" fill="none" xmlns="http://www.w3.org/2000/svg">
<path d="M24.542 6.72917C30.0071 6.72935 34.4373 11.1596 34.4375 16.6247C34.4375 22.0899 30.0072 26.521 24.542 26.5212H22.6592L16.6729 32.5065C16.3332 32.846 15.8226 32.9471 15.3789 32.7634C14.9352 32.5795 14.6455 32.1469 14.6455 31.6667V26.5212H13.458C7.99284 26.521 3.5625 22.0899 3.5625 16.6247C3.56268 11.1596 7.99295 6.72935 13.458 6.72917H24.542ZM13.458 9.10417C9.30463 9.10435 5.93768 12.4713 5.9375 16.6247C5.9375 20.7782 9.30452 24.146 13.458 24.1462H15.833C16.4888 24.1462 17.0205 24.6778 17.0205 25.3337V28.7995L21.3271 24.4938L21.4141 24.4147C21.6254 24.2416 21.8914 24.1462 22.167 24.1462H24.542C28.6955 24.146 32.0625 20.7782 32.0625 16.6247C32.0623 12.4713 28.6954 9.10435 24.542 9.10417H13.458Z" fill="#F9F2E2"/>
</svg>
