<svg width="204" height="56" viewBox="0 0 204 56" fill="none" xmlns="http://www.w3.org/2000/svg">
<path d="M23.1387 26.9646C23.1387 8.34776 30.9564 0 39.9667 0C43.4781 0 47.0557 0.99378 49.7057 3.51136L50.832 0H52.5546L52.0246 17.1593H50.1033C49.6395 12.3229 47.3869 2.38507 40.8942 2.38507C34.4678 2.38507 30.8239 12.9192 30.8239 26.9646C30.8239 41.4738 32.944 52.5379 40.298 52.6041C45.3331 52.6704 47.4532 47.039 47.5194 43.2626C47.5194 41.1425 47.7844 32.4635 46.3931 30.2109C45.9294 29.4159 42.8818 29.1509 42.0868 29.1509V27.2296H57.5235V29.1509C56.7285 29.1509 55.4697 29.2834 55.0059 30.0784C54.4096 31.0722 54.1446 32.9273 54.0121 36.6374L53.8134 47.4365C51.8921 51.7429 46.1281 54.8567 39.9004 54.8567C25.2587 54.8567 23.1387 38.2274 23.1387 26.9646Z" fill="#F9F2E2"/>
<path d="M79.8577 34.0536C79.8577 24.182 78.9302 15.6355 73.1662 15.6355C67.4023 15.6355 66.541 24.3808 66.541 34.0536C66.541 43.9914 67.4023 53.3329 73.1662 53.3329C78.9302 53.3329 79.8577 43.8589 79.8577 34.0536ZM73.1662 13.7804C81.514 13.7804 87.6754 20.8694 87.6754 34.0536C87.6754 47.1052 81.514 55.1217 73.1662 55.1217C64.7522 55.1217 58.7233 47.1052 58.7233 34.0536C58.7233 21.0019 64.7522 13.7804 73.1662 13.7804Z" fill="#F9F2E2"/>
<path d="M111.754 34.0536C111.754 24.182 110.827 15.6355 105.063 15.6355C99.299 15.6355 98.4378 24.3808 98.4378 34.0536C98.4378 43.9914 99.299 53.3329 105.063 53.3329C110.827 53.3329 111.754 43.8589 111.754 34.0536ZM105.063 13.7804C113.411 13.7804 119.572 20.8694 119.572 34.0536C119.572 47.1052 113.411 55.1217 105.063 55.1217C96.649 55.1217 90.62 47.1052 90.62 34.0536C90.62 21.0019 96.649 13.7804 105.063 13.7804Z" fill="#F9F2E2"/>
<path d="M143.651 34.0536C143.651 24.182 142.724 15.6355 136.96 15.6355C131.196 15.6355 130.335 24.3808 130.335 34.0536C130.335 43.9914 131.196 53.3329 136.96 53.3329C142.724 53.3329 143.651 43.8589 143.651 34.0536ZM136.96 13.7804C145.307 13.7804 151.469 20.8694 151.469 34.0536C151.469 47.1052 145.307 55.1217 136.96 55.1217C128.546 55.1217 122.517 47.1052 122.517 34.0536C122.517 21.0019 128.546 13.7804 136.96 13.7804Z" fill="#F9F2E2"/>
<path d="M174.753 43.7926L174.819 26.6333C174.289 18.6168 172.765 16.3643 169.386 16.1655C164.086 15.8342 162.231 24.182 162.165 33.391C162.099 43.4613 163.689 51.1466 168.658 51.3453C168.79 51.3453 168.856 51.3453 168.989 51.3453C170.91 51.3453 174.355 50.2853 174.753 43.7926ZM168.393 13.9792C170.579 13.9792 172.832 14.3767 174.687 15.5692C174.554 10.0041 174.289 5.36641 173.759 4.10763C173.494 3.71011 173.163 3.57761 172.699 3.57761C171.904 3.57761 170.844 4.04137 170.049 3.77637L170.446 2.18632C173.229 1.92131 178.662 0.33126 181.842 0.33126L181.709 28.7534C181.776 38.0949 181.974 48.364 182.769 50.2853C183.034 50.6828 183.366 50.8153 183.829 50.8153C184.691 50.8153 185.684 50.3516 186.479 50.6828L186.082 52.2729C183.299 52.5379 177.867 54.0617 174.687 54.0617V50.2853C172.832 53.0016 170.314 54.5254 167.001 54.3929C158.919 53.9292 153.95 44.4551 154.48 33.391C154.944 22.5257 160.509 13.9792 168.393 13.9792Z" fill="#F9F2E2"/>
<path d="M202.718 35.0034C203.229 35.0034 203.616 35.404 203.616 35.9152C203.616 36.454 203.229 36.8408 202.718 36.8408C202.193 36.8408 201.834 36.4401 201.834 35.9152C201.834 35.404 202.221 35.0034 202.718 35.0034Z" fill="#B5966D"/>
<path d="M199.131 32.5582C199.131 30.3893 198.965 28.7592 197.902 28.7592C196.824 28.7592 196.672 30.417 196.672 32.5582C196.672 34.7409 196.824 36.5507 197.902 36.5507C198.965 36.5507 199.131 34.7133 199.131 32.5582ZM197.902 28.3448C199.642 28.3448 200.955 29.6986 200.955 32.5582C200.955 35.3902 199.642 36.9513 197.902 36.9513C196.147 36.9513 194.849 35.3902 194.849 32.5582C194.849 29.7262 196.133 28.3448 197.902 28.3448Z" fill="#B5966D"/>
<path d="M191.65 36.896C189.744 36.896 188.238 34.9067 188.238 31.0524C188.238 27.1705 189.758 25.4299 191.706 25.4299C192.452 25.4299 193.115 25.5818 193.667 26.1068L193.875 25.4299H194.206L194.151 28.9526H193.778C193.764 27.2396 192.59 25.8029 191.706 25.872C190.435 25.9687 190.048 28.0685 190.048 31.0386C190.048 32.1714 190.076 36.2882 191.858 36.2882C192.894 36.2882 193.737 35.5698 194.248 33.249H194.704C194.413 34.9758 193.723 36.896 191.65 36.896Z" fill="#B5966D"/>
<path d="M16.3074 30.6518C16.2936 29.8229 16.2798 28.8283 15.3542 28.8283C14.3872 28.8283 14.2767 30.4722 14.2352 31.1491H15.8515C16.1416 31.1491 16.3074 30.9281 16.3074 30.6518ZM17.7027 31.6879H14.2076C14.2076 31.9918 14.2076 32.2681 14.2076 32.4892C14.2076 34.5061 14.7049 35.8876 15.8101 35.8876C16.7357 35.8876 17.4264 35.0034 17.5507 34.1469L17.9375 34.2298C17.7718 35.5975 16.7495 36.9789 15.2713 36.9789C13.4892 36.9789 12.4531 35.0587 12.4531 32.4892C12.4531 30.044 13.5583 28.3448 15.2713 28.3448C16.6942 28.3448 17.7856 29.1737 17.9652 31.2182C17.979 31.384 17.8685 31.6879 17.7027 31.6879Z" fill="#B5966D"/>
<path d="M6.20277 28.6211C6.20277 27.4744 6.10607 25.8581 4.57265 25.8581C4.36543 25.8581 4.21346 25.9687 4.17202 26.1759C3.97862 27.1291 4.04769 29.5052 4.04769 31.1491C4.04769 33.1937 3.9648 35.6942 4.26872 36.1915C4.37924 36.3573 4.64172 36.3849 4.80749 36.3987L4.79368 36.7026H1.61631V36.3987C1.78209 36.3849 2.04457 36.3573 2.14127 36.1915C2.43138 35.7218 2.37612 33.1799 2.37612 31.1215C2.37612 29.5466 2.41756 27.1291 2.23797 26.1897C2.19653 25.9548 2.04457 25.8443 1.80972 25.8719C0.828878 25.9963 0.74599 26.4107 0.649288 26.7423C0.400625 27.5435 0.400625 28.331 0.331551 28.6072L0 28.5105C0.0138146 27.8889 0.0552586 26.2449 0.0552586 25.5266H5.30482C5.91266 25.4713 7.2665 25.5404 7.95723 25.5404L7.9296 30.1683C8.33023 29.2704 8.95189 28.4829 9.91891 28.4691C10.7478 28.4691 11.6734 29.0079 11.6734 30.8452C11.6872 32.351 11.6181 35.6113 11.922 36.1915C11.9911 36.3434 12.2536 36.3849 12.447 36.3987V36.7026H9.29725V36.3987C9.49066 36.3849 9.75313 36.3434 9.83602 36.1915C10.0709 35.7356 10.0432 33.9811 10.0432 33.3733C10.0432 32.724 10.0432 31.7155 10.0156 31.1906C9.93272 29.9749 9.46303 29.6986 9.13148 29.6986C8.3026 29.6986 7.98486 31.0801 7.91579 31.7017V33.3733C7.90197 33.9811 7.87434 35.7356 8.10919 36.1915C8.19208 36.3434 8.45456 36.3849 8.64796 36.3987V36.7026H5.49823V36.3987C5.69163 36.3849 5.95411 36.3434 6.02318 36.1915C6.25803 35.7356 6.24422 33.9811 6.24422 33.3733C6.24422 32.3096 6.25803 30.2374 6.21659 28.6211H6.20277Z" fill="#B5966D"/>
</svg>
